<?xml version="1.0" encoding="UTF-8"?>
<svg xmlns="http://www.w3.org/2000/svg" xmlns:xlink="http://www.w3.org/1999/xlink" viewBox="0 0 64 64" width="64px" height="64px">
<g id="surface82739793">
<path style=" stroke:none;fill-rule:nonzero;fill:rgb(100%,75.686276%,0%);fill-opacity:1;" d="M 32 20.445312 C 38.382812 20.445312 43.554688 25.617188 43.554688 32 C 43.554688 38.382812 38.382812 43.554688 32 43.554688 C 25.617188 43.554688 20.445312 38.382812 20.445312 32 C 20.445312 25.617188 25.617188 20.445312 32 20.445312 Z M 35.554688 9.777344 C 35.554688 10.429688 35.554688 12.683594 35.554688 13.332031 C 35.554688 15.296875 33.964844 16.890625 32 16.890625 C 30.035156 16.890625 28.445312 15.296875 28.445312 13.332031 C 28.445312 12.683594 28.445312 10.429688 28.445312 9.777344 C 28.445312 7.8125 30.035156 6.222656 32 6.222656 C 33.964844 6.222656 35.554688 7.8125 35.554688 9.777344 Z M 50.226562 18.800781 C 49.765625 19.261719 48.171875 20.855469 47.714844 21.316406 C 46.324219 22.703125 44.074219 22.703125 42.683594 21.316406 C 41.296875 19.925781 41.296875 17.675781 42.683594 16.285156 C 43.144531 15.824219 44.738281 14.230469 45.199219 13.773438 C 46.585938 12.382812 48.839844 12.382812 50.226562 13.773438 C 51.617188 15.160156 51.617188 17.414062 50.226562 18.800781 Z M 54.222656 35.554688 C 53.570312 35.554688 51.316406 35.554688 50.667969 35.554688 C 48.703125 35.554688 47.109375 33.964844 47.109375 32 C 47.109375 30.035156 48.703125 28.445312 50.667969 28.445312 C 51.316406 28.445312 53.570312 28.445312 54.222656 28.445312 C 56.1875 28.445312 57.777344 30.035156 57.777344 32 C 57.777344 33.964844 56.1875 35.554688 54.222656 35.554688 Z M 45.199219 50.226562 C 44.738281 49.765625 43.144531 48.171875 42.683594 47.714844 C 41.296875 46.324219 41.296875 44.074219 42.683594 42.683594 C 44.074219 41.296875 46.324219 41.296875 47.714844 42.683594 C 48.175781 43.144531 49.769531 44.738281 50.226562 45.199219 C 51.617188 46.585938 51.617188 48.839844 50.226562 50.226562 C 48.839844 51.617188 46.585938 51.617188 45.199219 50.226562 Z M 28.445312 54.222656 C 28.445312 53.570312 28.445312 51.316406 28.445312 50.667969 C 28.445312 48.703125 30.035156 47.109375 32 47.109375 C 33.964844 47.109375 35.554688 48.703125 35.554688 50.667969 C 35.554688 51.316406 35.554688 53.570312 35.554688 54.222656 C 35.554688 56.1875 33.964844 57.777344 32 57.777344 C 30.035156 57.777344 28.445312 56.1875 28.445312 54.222656 Z M 13.773438 45.199219 C 14.234375 44.738281 15.828125 43.144531 16.285156 42.683594 C 17.675781 41.296875 19.925781 41.296875 21.316406 42.683594 C 22.703125 44.074219 22.703125 46.324219 21.316406 47.714844 C 20.855469 48.175781 19.261719 49.769531 18.800781 50.226562 C 17.414062 51.617188 15.160156 51.617188 13.773438 50.226562 C 12.382812 48.839844 12.382812 46.585938 13.773438 45.199219 Z M 9.777344 28.445312 C 10.429688 28.445312 12.683594 28.445312 13.332031 28.445312 C 15.296875 28.445312 16.890625 30.035156 16.890625 32 C 16.890625 33.964844 15.296875 35.554688 13.332031 35.554688 C 12.683594 35.554688 10.429688 35.554688 9.777344 35.554688 C 7.8125 35.554688 6.222656 33.964844 6.222656 32 C 6.222656 30.035156 7.8125 28.445312 9.777344 28.445312 Z M 18.800781 13.773438 C 19.261719 14.234375 20.855469 15.828125 21.316406 16.285156 C 22.703125 17.675781 22.703125 19.925781 21.316406 21.316406 C 19.925781 22.703125 17.675781 22.703125 16.285156 21.316406 C 15.824219 20.855469 14.230469 19.261719 13.773438 18.800781 C 12.382812 17.414062 12.382812 15.160156 13.773438 13.773438 C 15.160156 12.382812 17.414062 12.382812 18.800781 13.773438 Z M 18.800781 13.773438 "/>
</g>
</svg>
