<?xml version="1.0" encoding="utf-8"?>
<!-- Generator: Adobe Illustrator 23.0.0, SVG Export Plug-In . SVG Version: 6.00 Build 0)  -->
<svg version="1.1" id="Layer_1" xmlns="http://www.w3.org/2000/svg" xmlns:xlink="http://www.w3.org/1999/xlink" x="0px" y="0px"
	 viewBox="0 0 518 325" style="enable-background:new 0 0 518 325;" xml:space="preserve">
<style type="text/css">
	.st0{opacity:9.000000e-02;}
	.st1{opacity:0.5;fill:#013632;enable-background:new    ;}
	.st2{fill:#013632;}
	.st3{opacity:0.7;fill:#013632;enable-background:new    ;}
	.st4{opacity:0.32;fill:#33959F;enable-background:new    ;}
	.st5{opacity:0.57;fill:#33959F;enable-background:new    ;}
	.st6{fill:#D2F7F5;}
	.st7{fill:#05D7CA;}
	.st8{fill:#8FEAE5;}
	.st9{fill:#FFCFCB;}
	.st10{fill:none;stroke:#8FEAE5;stroke-width:0.5512;stroke-miterlimit:10;}
	.st11{fill:none;stroke:#8FEAE5;stroke-width:0.5512;stroke-miterlimit:10;stroke-dasharray:4.0616,4.0586;}
	.st12{fill:none;stroke:#8FEAE5;stroke-width:0.5512;stroke-miterlimit:10;stroke-dasharray:4.6351,4.6316;}
	.st13{fill:none;stroke:#8FEAE5;stroke-width:0.5792;stroke-miterlimit:10;}
	.st14{fill:none;stroke:#33959F;stroke-width:0.6069;stroke-miterlimit:10;stroke-dasharray:4.8555,4.8518;}
	.st15{opacity:0.1;fill:#33959F;enable-background:new    ;}
	.st16{opacity:0.53;fill:#9EB9B8;enable-background:new    ;}
	.st17{fill:#F8985F;}
	.st18{fill:#33959F;}
	.st19{fill:#0C1D25;}
	.st20{opacity:0.5;fill:#0C1D25;enable-background:new    ;}
	.st21{fill:#FF877D;}
	.st22{opacity:0.3;fill:#FF877D;enable-background:new    ;}
	.st23{opacity:0.29;fill:#33959F;enable-background:new    ;}
	.st24{opacity:0.25;fill:#33959F;enable-background:new    ;}
	.st25{opacity:0.2;fill:#33959F;enable-background:new    ;}
	.st26{opacity:0.3;fill:#F8985F;enable-background:new    ;}
	.st27{fill:#FFC937;}
	.st28{opacity:0.5;fill:#FFC937;enable-background:new    ;}
	.st29{opacity:0.33;fill:#D2F7F5;enable-background:new    ;}
	.st30{fill:none;stroke:#8FEAE5;stroke-width:0.4629;stroke-miterlimit:10;}
	.st31{fill:none;stroke:#8FEAE5;stroke-width:0.5757;stroke-miterlimit:10;}
	.st32{opacity:0.2;fill:#FF877D;enable-background:new    ;}
	.st33{opacity:0.53;fill:#0C1D25;enable-background:new    ;}
	.st34{fill:#007B87;}
	.st35{opacity:0.15;fill:#007B87;enable-background:new    ;}
	.st36{opacity:0.28;fill:#0C1D25;enable-background:new    ;}
	.st37{opacity:0.44;fill:#FF877D;enable-background:new    ;}
	.st38{fill:#1F1B31;}
	.st39{fill:none;stroke:#0C1D25;stroke-width:2.9636;stroke-linecap:round;stroke-miterlimit:10;}
</style>
<g>
	<g class="st0">
		<path class="st1" d="M85.1,140.6h-30c-1.2,0-2.2-1-2.2-2.2V127c0-1.2,1-2.2,2.2-2.2h30c1.2,0,2.2,1,2.2,2.2v11.4
			C87.3,139.6,86.3,140.6,85.1,140.6z"/>
		<g>
			<path class="st2" d="M125,72.2H95c-1.2,0-2.2-1-2.2-2.2V58.7c0-1.2,1-2.2,2.2-2.2h30c1.2,0,2.2,1,2.2,2.2V70
				C127.1,71.2,126.2,72.2,125,72.2z"/>
			<path class="st1" d="M160.3,72.2h-30c-1.2,0-2.2-1-2.2-2.2V58.7c0-1.2,1-2.2,2.2-2.2h30c1.2,0,2.2,1,2.2,2.2V70
				C162.4,71.2,161.4,72.2,160.3,72.2z"/>
			<path class="st2" d="M195.8,72.2h-30c-1.2,0-2.2-1-2.2-2.2V58.7c0-1.2,1-2.2,2.2-2.2h30c1.2,0,2.2,1,2.2,2.2V70
				C198,71.2,197,72.2,195.8,72.2z"/>
			<path class="st2" d="M231.5,72.2h-30c-1.2,0-2.2-1-2.2-2.2V58.7c0-1.2,1-2.2,2.2-2.2h30c1.2,0,2.2,1,2.2,2.2V70
				C233.8,71.2,232.8,72.2,231.5,72.2z"/>
			<path class="st3" d="M211.8,55.1h-30c-1.2,0-2.2-1-2.2-2.2V41.6c0-1.2,1-2.2,2.2-2.2h30c1.2,0,2.2,1,2.2,2.2V53
				C213.8,54.1,212.9,55.1,211.8,55.1z"/>
			<path class="st1" d="M247.3,55.1h-30c-1.2,0-2.2-1-2.2-2.2V41.6c0-1.2,1-2.2,2.2-2.2h30c1.2,0,2.2,1,2.2,2.2V53
				C249.5,54.1,248.5,55.1,247.3,55.1z"/>
			<path class="st2" d="M140.8,89.3h-30c-1.2,0-2.2-1-2.2-2.2V75.7c0-1.2,1-2.2,2.2-2.2h30c1.2,0,2.2,1,2.2,2.2v11.4
				C142.9,88.3,142,89.3,140.8,89.3z"/>
			<path class="st1" d="M176,89.3h-30c-1.2,0-2.2-1-2.2-2.2V75.7c0-1.2,1-2.2,2.2-2.2h30c1.2,0,2.2,1,2.2,2.2v11.4
				C178.3,88.3,177.3,89.3,176,89.3z"/>
			<path class="st1" d="M211.8,89.3h-30c-1.2,0-2.2-1-2.2-2.2V75.7c0-1.2,1-2.2,2.2-2.2h30c1.2,0,2.2,1,2.2,2.2v11.4
				C213.8,88.3,212.9,89.3,211.8,89.3z"/>
			<path class="st3" d="M247.3,89.3h-30c-1.2,0-2.2-1-2.2-2.2V75.7c0-1.2,1-2.2,2.2-2.2h30c1.2,0,2.2,1,2.2,2.2v11.4
				C249.5,88.3,248.5,89.3,247.3,89.3z"/>
			<path class="st2" d="M267.4,72.2h-30c-1.2,0-2.2-1-2.2-2.2V58.7c0-1.2,1-2.2,2.2-2.2h30c1.2,0,2.2,1,2.2,2.2V70
				C269.5,71.2,268.5,72.2,267.4,72.2z"/>
			<path class="st1" d="M302.6,72.2h-30c-1.2,0-2.2-1-2.2-2.2V58.7c0-1.2,1-2.2,2.2-2.2h30c1.2,0,2.2,1,2.2,2.2V70
				C304.8,71.2,303.9,72.2,302.6,72.2z"/>
			<path class="st2" d="M338.3,72.2h-30c-1.2,0-2.2-1-2.2-2.2V58.7c0-1.2,1-2.2,2.2-2.2h30c1.2,0,2.2,1,2.2,2.2V70
				C340.4,71.2,339.4,72.2,338.3,72.2z"/>
			<path class="st1" d="M373.9,72.2h-30c-1.2,0-2.2-1-2.2-2.2V58.7c0-1.2,1-2.2,2.2-2.2h30c1.2,0,2.2,1,2.2,2.2V70
				C376,71.2,375.1,72.2,373.9,72.2z"/>
			<path class="st2" d="M283.1,55.1h-30c-1.2,0-2.2-1-2.2-2.2V41.6c0-1.2,1-2.2,2.2-2.2h30c1.2,0,2.2,1,2.2,2.2V53
				C285.4,54.1,284.4,55.1,283.1,55.1z"/>
			<path class="st2" d="M354,55.1h-30c-1.2,0-2.2-1-2.2-2.2V41.6c0-1.2,1-2.2,2.2-2.2h30c1.2,0,2.2,1,2.2,2.2V53
				C356.3,54.1,355.3,55.1,354,55.1z"/>
			<path class="st2" d="M283.1,89.3h-30c-1.2,0-2.2-1-2.2-2.2V75.7c0-1.2,1-2.2,2.2-2.2h30c1.2,0,2.2,1,2.2,2.2v11.4
				C285.4,88.3,284.4,89.3,283.1,89.3z"/>
			<path class="st1" d="M318.4,89.3h-30c-1.2,0-2.2-1-2.2-2.2V75.7c0-1.2,1-2.2,2.2-2.2h30c1.2,0,2.2,1,2.2,2.2v11.4
				C320.5,88.3,319.6,89.3,318.4,89.3z"/>
			<path class="st1" d="M354,89.3h-30c-1.2,0-2.2-1-2.2-2.2V75.7c0-1.2,1-2.2,2.2-2.2h30c1.2,0,2.2,1,2.2,2.2v11.4
				C356.3,88.3,355.3,89.3,354,89.3z"/>
			<path class="st2" d="M389.8,89.3h-30c-1.2,0-2.2-1-2.2-2.2V75.7c0-1.2,1-2.2,2.2-2.2h30c1.2,0,2.2,1,2.2,2.2v11.4
				C391.9,88.3,390.9,89.3,389.8,89.3z"/>
			<path class="st1" d="M141.8,123.4h-30c-1.2,0-2.2-1-2.2-2.2v-11.4c0-1.2,1-2.2,2.2-2.2h30c1.2,0,2.2,1,2.2,2.2v11.4
				C144,122.5,143,123.4,141.8,123.4z"/>
			<path class="st1" d="M177,123.4h-30c-1.2,0-2.2-1-2.2-2.2v-11.4c0-1.2,1-2.2,2.2-2.2h30c1.2,0,2.2,1,2.2,2.2v11.4
				C179.3,122.5,178.3,123.4,177,123.4z"/>
			<path class="st3" d="M212.8,123.4h-30c-1.2,0-2.2-1-2.2-2.2v-11.4c0-1.2,1-2.2,2.2-2.2h30c1.2,0,2.2,1,2.2,2.2v11.4
				C214.9,122.5,213.9,123.4,212.8,123.4z"/>
			<path class="st1" d="M248.4,123.4h-30c-1.2,0-2.2-1-2.2-2.2v-11.4c0-1.2,1-2.2,2.2-2.2h30c1.2,0,2.2,1,2.2,2.2v11.4
				C250.5,122.5,249.6,123.4,248.4,123.4z"/>
			<path class="st2" d="M157.6,106.4h-30c-1.2,0-2.2-1-2.2-2.2V92.8c0-1.2,1-2.2,2.2-2.2h30c1.2,0,2.2,1,2.2,2.2v11.4
				C159.8,105.4,158.8,106.4,157.6,106.4z"/>
			<path class="st1" d="M192.9,106.4h-30c-1.2,0-2.2-1-2.2-2.2V92.8c0-1.2,1-2.2,2.2-2.2h30c1.2,0,2.2,1,2.2,2.2v11.4
				C195,105.4,194.1,106.4,192.9,106.4z"/>
			<path class="st2" d="M228.5,106.4h-30c-1.2,0-2.2-1-2.2-2.2V92.8c0-1.2,1-2.2,2.2-2.2h30c1.2,0,2.2,1,2.2,2.2v11.4
				C230.8,105.4,229.8,106.4,228.5,106.4z"/>
			<path class="st1" d="M264.3,106.4h-30c-1.2,0-2.2-1-2.2-2.2V92.8c0-1.2,1-2.2,2.2-2.2h30c1.2,0,2.2,1,2.2,2.2v11.4
				C266.4,105.4,265.4,106.4,264.3,106.4z"/>
			<path class="st2" d="M157.6,140.5h-30c-1.2,0-2.2-1-2.2-2.2V127c0-1.2,1-2.2,2.2-2.2h30c1.2,0,2.2,1,2.2,2.2v11.4
				C159.8,139.5,158.8,140.5,157.6,140.5z"/>
			<path class="st3" d="M192.9,140.5h-30c-1.2,0-2.2-1-2.2-2.2V127c0-1.2,1-2.2,2.2-2.2h30c1.2,0,2.2,1,2.2,2.2v11.4
				C195,139.5,194.1,140.5,192.9,140.5z"/>
			<path class="st2" d="M228.5,140.5h-30c-1.2,0-2.2-1-2.2-2.2V127c0-1.2,1-2.2,2.2-2.2h30c1.2,0,2.2,1,2.2,2.2v11.4
				C230.8,139.5,229.8,140.5,228.5,140.5z"/>
			<path class="st3" d="M264.3,140.5h-30c-1.2,0-2.2-1-2.2-2.2V127c0-1.2,1-2.2,2.2-2.2h30c1.2,0,2.2,1,2.2,2.2v11.4
				C266.4,139.5,265.4,140.5,264.3,140.5z"/>
			<path class="st2" d="M284.3,123.4h-30c-1.2,0-2.2-1-2.2-2.2v-11.4c0-1.2,1-2.2,2.2-2.2h30c1.2,0,2.2,1,2.2,2.2v11.4
				C286.4,122.5,285.4,123.4,284.3,123.4z"/>
			<path class="st3" d="M319.4,123.4h-30c-1.2,0-2.2-1-2.2-2.2v-11.4c0-1.2,1-2.2,2.2-2.2h30c1.2,0,2.2,1,2.2,2.2v11.4
				C321.6,122.5,320.6,123.4,319.4,123.4z"/>
			<path class="st1" d="M355.1,123.4h-30c-1.2,0-2.2-1-2.2-2.2v-11.4c0-1.2,1-2.2,2.2-2.2h30c1.2,0,2.2,1,2.2,2.2v11.4
				C357.3,122.5,356.4,123.4,355.1,123.4z"/>
			<path class="st1" d="M390.8,123.4h-30c-1.2,0-2.2-1-2.2-2.2v-11.4c0-1.2,1-2.2,2.2-2.2h30c1.2,0,2.2,1,2.2,2.2v11.4
				C392.9,122.5,391.9,123.4,390.8,123.4z"/>
			<path class="st2" d="M300,106.4h-30c-1.2,0-2.2-1-2.2-2.2V92.8c0-1.2,1-2.2,2.2-2.2h30c1.2,0,2.2,1,2.2,2.2v11.4
				C302.3,105.4,301.3,106.4,300,106.4z"/>
			<path class="st1" d="M335.3,106.4h-30c-1.2,0-2.2-1-2.2-2.2V92.8c0-1.2,1-2.2,2.2-2.2h30c1.2,0,2.2,1,2.2,2.2v11.4
				C337.4,105.4,336.4,106.4,335.3,106.4z"/>
			<path class="st2" d="M370.9,106.4h-30c-1.2,0-2.2-1-2.2-2.2V92.8c0-1.2,1-2.2,2.2-2.2h30c1.2,0,2.2,1,2.2,2.2v11.4
				C373.1,105.4,372.1,106.4,370.9,106.4z"/>
			<path class="st3" d="M406.5,106.4h-30c-1.2,0-2.2-1-2.2-2.2V92.8c0-1.2,1-2.2,2.2-2.2h30c1.2,0,2.2,1,2.2,2.2v11.4
				C408.8,105.4,407.8,106.4,406.5,106.4z"/>
			<path class="st2" d="M300,140.5h-30c-1.2,0-2.2-1-2.2-2.2V127c0-1.2,1-2.2,2.2-2.2h30c1.2,0,2.2,1,2.2,2.2v11.4
				C302.3,139.5,301.3,140.5,300,140.5z"/>
			<path class="st1" d="M335.3,140.5h-30c-1.2,0-2.2-1-2.2-2.2V127c0-1.2,1-2.2,2.2-2.2h30c1.2,0,2.2,1,2.2,2.2v11.4
				C337.4,139.5,336.4,140.5,335.3,140.5z"/>
			<path class="st2" d="M370.9,140.5h-30c-1.2,0-2.2-1-2.2-2.2V127c0-1.2,1-2.2,2.2-2.2h30c1.2,0,2.2,1,2.2,2.2v11.4
				C373.1,139.5,372.1,140.5,370.9,140.5z"/>
			<path class="st1" d="M406.5,140.5h-30c-1.2,0-2.2-1-2.2-2.2V127c0-1.2,1-2.2,2.2-2.2h30c1.2,0,2.2,1,2.2,2.2v11.4
				C408.8,139.5,407.8,140.5,406.5,140.5z"/>
			<path class="st2" d="M123.1,175.3h-30c-1.2,0-2.2-1-2.2-2.2v-11.4c0-1.2,1-2.2,2.2-2.2h30c1.2,0,2.2,1,2.2,2.2v11.4
				C125.3,174.4,124.3,175.3,123.1,175.3z"/>
			<path class="st1" d="M158.4,175.3h-30c-1.2,0-2.2-1-2.2-2.2v-11.4c0-1.2,1-2.2,2.2-2.2h30c1.2,0,2.2,1,2.2,2.2v11.4
				C160.5,174.4,159.6,175.3,158.4,175.3z"/>
			<path class="st2" d="M194,175.3h-30c-1.2,0-2.2-1-2.2-2.2v-11.4c0-1.2,1-2.2,2.2-2.2h30c1.2,0,2.2,1,2.2,2.2v11.4
				C196.3,174.4,195.3,175.3,194,175.3z"/>
			<path class="st2" d="M229.8,175.3h-30c-1.2,0-2.2-1-2.2-2.2v-11.4c0-1.2,1-2.2,2.2-2.2h30c1.2,0,2.2,1,2.2,2.2v11.4
				C231.9,174.4,230.9,175.3,229.8,175.3z"/>
			<path class="st1" d="M139,158.3h-30c-1.2,0-2.2-1-2.2-2.2v-11.4c0-1.2,1-2.2,2.2-2.2h30c1.2,0,2.2,1,2.2,2.2v11.4
				C141.1,157.3,140.3,158.3,139,158.3z"/>
			<path class="st1" d="M174.3,158.3h-30c-1.2,0-2.2-1-2.2-2.2v-11.4c0-1.2,1-2.2,2.2-2.2h30c1.2,0,2.2,1,2.2,2.2v11.4
				C176.4,157.3,175.4,158.3,174.3,158.3z"/>
			<path class="st1" d="M121.7,105.7h-30c-1.2,0-2.2-1-2.2-2.2V92.1c0-1.2,1-2.2,2.2-2.2h30c1.2,0,2.2,1,2.2,2.2v11.4
				C123.9,104.8,122.9,105.7,121.7,105.7z"/>
			<path class="st1" d="M120.4,140.6h-30c-1.2,0-2.2-1-2.2-2.2V127c0-1.2,1-2.2,2.2-2.2h30c1.2,0,2.2,1,2.2,2.2v11.4
				C122.5,139.6,121.6,140.6,120.4,140.6z"/>
			<path class="st1" d="M209.8,158.3h-30c-1.2,0-2.2-1-2.2-2.2v-11.4c0-1.2,1-2.2,2.2-2.2h30c1.2,0,2.2,1,2.2,2.2v11.4
				C212,157.3,211,158.3,209.8,158.3z"/>
			<path class="st1" d="M245.5,158.3h-30c-1.2,0-2.2-1-2.2-2.2v-11.4c0-1.2,1-2.2,2.2-2.2h30c1.2,0,2.2,1,2.2,2.2v11.4
				C247.8,157.3,246.8,158.3,245.5,158.3z"/>
			<path class="st1" d="M139,192.4h-30c-1.2,0-2.2-1-2.2-2.2v-11.4c0-1.2,1-2.2,2.2-2.2h30c1.2,0,2.2,1,2.2,2.2v11.4
				C141.1,191.4,140.3,192.4,139,192.4z"/>
			<path class="st3" d="M174.3,192.4h-30c-1.2,0-2.2-1-2.2-2.2v-11.4c0-1.2,1-2.2,2.2-2.2h30c1.2,0,2.2,1,2.2,2.2v11.4
				C176.4,191.4,175.4,192.4,174.3,192.4z"/>
			<path class="st1" d="M209.8,192.4h-30c-1.2,0-2.2-1-2.2-2.2v-11.4c0-1.2,1-2.2,2.2-2.2h30c1.2,0,2.2,1,2.2,2.2v11.4
				C212,191.4,211,192.4,209.8,192.4z"/>
			<path class="st1" d="M245.5,192.4h-30c-1.2,0-2.2-1-2.2-2.2v-11.4c0-1.2,1-2.2,2.2-2.2h30c1.2,0,2.2,1,2.2,2.2v11.4
				C247.8,191.4,246.8,192.4,245.5,192.4z"/>
			<path class="st2" d="M265.5,175.3h-30c-1.2,0-2.2-1-2.2-2.2v-11.4c0-1.2,1-2.2,2.2-2.2h30c1.2,0,2.2,1,2.2,2.2v11.4
				C267.8,174.4,266.8,175.3,265.5,175.3z"/>
			<path class="st1" d="M300.8,175.3h-30c-1.2,0-2.2-1-2.2-2.2v-11.4c0-1.2,1-2.2,2.2-2.2h30c1.2,0,2.2,1,2.2,2.2v11.4
				C302.9,174.4,301.9,175.3,300.8,175.3z"/>
			<path class="st2" d="M336.4,175.3h-30c-1.2,0-2.2-1-2.2-2.2v-11.4c0-1.2,1-2.2,2.2-2.2h30c1.2,0,2.2,1,2.2,2.2v11.4
				C338.6,174.4,337.6,175.3,336.4,175.3z"/>
			<path class="st1" d="M372,175.3h-30c-1.2,0-2.2-1-2.2-2.2v-11.4c0-1.2,1-2.2,2.2-2.2h30c1.2,0,2.2,1,2.2,2.2v11.4
				C374.3,174.4,373.3,175.3,372,175.3z"/>
			<path class="st2" d="M281.4,158.3h-30c-1.2,0-2.2-1-2.2-2.2v-11.4c0-1.2,1-2.2,2.2-2.2h30c1.2,0,2.2,1,2.2,2.2v11.4
				C283.5,157.3,282.5,158.3,281.4,158.3z"/>
			<path class="st3" d="M316.6,158.3h-30c-1.2,0-2.2-1-2.2-2.2v-11.4c0-1.2,1-2.2,2.2-2.2h30c1.2,0,2.2,1,2.2,2.2v11.4
				C318.8,157.3,317.9,158.3,316.6,158.3z"/>
			<path class="st2" d="M352.3,158.3h-30c-1.2,0-2.2-1-2.2-2.2v-11.4c0-1.2,1-2.2,2.2-2.2h30c1.2,0,2.2,1,2.2,2.2v11.4
				C354.4,157.3,353.4,158.3,352.3,158.3z"/>
			<path class="st1" d="M387.9,158.3h-30c-1.2,0-2.2-1-2.2-2.2v-11.4c0-1.2,1-2.2,2.2-2.2h30c1.2,0,2.2,1,2.2,2.2v11.4
				C390,157.3,389.1,158.3,387.9,158.3z"/>
			<path class="st3" d="M424,158.3h-30c-1.2,0-2.2-1-2.2-2.2v-11.4c0-1.2,1-2.2,2.2-2.2h30c1.2,0,2.2,1,2.2,2.2v11.4
				C426.3,157.3,425.3,158.3,424,158.3z"/>
			<path class="st2" d="M437,209.8h-30c-1.2,0-2.2-1-2.2-2.2v-11.4c0-1.2,1-2.2,2.2-2.2h30c1.2,0,2.2,1,2.2,2.2v11.4
				C439.3,208.8,438.3,209.8,437,209.8z"/>
			<path class="st1" d="M419.9,227.2h-30c-1.2,0-2.2-1-2.2-2.2v-11.4c0-1.2,1-2.2,2.2-2.2h30c1.2,0,2.2,1,2.2,2.2V225
				C422.1,226.3,421.1,227.2,419.9,227.2z"/>
			<path class="st1" d="M424,192.4h-30c-1.2,0-2.2-1-2.2-2.2v-11.4c0-1.2,1-2.2,2.2-2.2h30c1.2,0,2.2,1,2.2,2.2v11.4
				C426.3,191.4,425.3,192.4,424,192.4z"/>
			<path class="st3" d="M409.5,72.2h-30c-1.2,0-2.2-1-2.2-2.2V58.7c0-1.2,1-2.2,2.2-2.2h30c1.2,0,2.2,1,2.2,2.2V70
				C411.8,71.2,410.8,72.2,409.5,72.2z"/>
			<path class="st2" d="M445.3,72.2h-30c-1.2,0-2.2-1-2.2-2.2V58.7c0-1.2,1-2.2,2.2-2.2h30c1.2,0,2.2,1,2.2,2.2V70
				C447.4,71.2,446.4,72.2,445.3,72.2z"/>
			<path class="st3" d="M425.9,89.1h-30c-1.2,0-2.2-1-2.2-2.2V75.6c0-1.2,1-2.2,2.2-2.2h30c1.2,0,2.2,1,2.2,2.2V87
				C428,88.2,427,89.1,425.9,89.1z"/>
			<path class="st2" d="M461.5,104.1h-30c-1.2,0-2.2-1-2.2-2.2V90.5c0-1.2,1-2.2,2.2-2.2h30c1.2,0,2.2,1,2.2,2.2v11.4
				C463.6,103.1,462.8,104.1,461.5,104.1z"/>
			<path class="st2" d="M102.3,209.8h-30c-1.2,0-2.2-1-2.2-2.2v-11.4c0-1.2,1-2.2,2.2-2.2h30c1.2,0,2.2,1,2.2,2.2v11.4
				C104.5,208.8,103.5,209.8,102.3,209.8z"/>
			<path class="st3" d="M427.3,123.4h-30c-1.2,0-2.2-1-2.2-2.2v-11.4c0-1.2,1-2.2,2.2-2.2h30c1.2,0,2.2,1,2.2,2.2v11.4
				C429.4,122.5,428.4,123.4,427.3,123.4z"/>
			<path class="st2" d="M281.4,192.4h-30c-1.2,0-2.2-1-2.2-2.2v-11.4c0-1.2,1-2.2,2.2-2.2h30c1.2,0,2.2,1,2.2,2.2v11.4
				C283.5,191.4,282.5,192.4,281.4,192.4z"/>
			<path class="st1" d="M316.6,192.4h-30c-1.2,0-2.2-1-2.2-2.2v-11.4c0-1.2,1-2.2,2.2-2.2h30c1.2,0,2.2,1,2.2,2.2v11.4
				C318.8,191.4,317.9,192.4,316.6,192.4z"/>
			<path class="st1" d="M352.3,192.4h-30c-1.2,0-2.2-1-2.2-2.2v-11.4c0-1.2,1-2.2,2.2-2.2h30c1.2,0,2.2,1,2.2,2.2v11.4
				C354.4,191.4,353.4,192.4,352.3,192.4z"/>
			<path class="st2" d="M387.9,192.4h-30c-1.2,0-2.2-1-2.2-2.2v-11.4c0-1.2,1-2.2,2.2-2.2h30c1.2,0,2.2,1,2.2,2.2v11.4
				C390,191.4,389.1,192.4,387.9,192.4z"/>
			<path class="st1" d="M135.3,227.2h-30c-1.2,0-2.2-1-2.2-2.2v-11.4c0-1.2,1-2.2,2.2-2.2h30c1.2,0,2.2,1,2.2,2.2V225
				C137.5,226.3,136.5,227.2,135.3,227.2z"/>
			<path class="st1" d="M170.6,227.2h-30c-1.2,0-2.2-1-2.2-2.2v-11.4c0-1.2,1-2.2,2.2-2.2h30c1.2,0,2.2,1,2.2,2.2V225
				C172.8,226.3,171.8,227.2,170.6,227.2z"/>
			<path class="st3" d="M206.3,227.2h-30c-1.2,0-2.2-1-2.2-2.2v-11.4c0-1.2,1-2.2,2.2-2.2h30c1.2,0,2.2,1,2.2,2.2V225
				C208.4,226.3,207.4,227.2,206.3,227.2z"/>
			<path class="st1" d="M241.9,227.2h-30c-1.2,0-2.2-1-2.2-2.2v-11.4c0-1.2,1-2.2,2.2-2.2h30c1.2,0,2.2,1,2.2,2.2V225
				C244.1,226.3,243.1,227.2,241.9,227.2z"/>
			<path class="st2" d="M151.3,210.2h-30c-1.2,0-2.2-1-2.2-2.2v-11.4c0-1.2,1-2.2,2.2-2.2h30c1.2,0,2.2,1,2.2,2.2V208
				C153.3,209.2,152.4,210.2,151.3,210.2z"/>
			<path class="st3" d="M186.4,210.2h-30c-1.2,0-2.2-1-2.2-2.2v-11.4c0-1.2,1-2.2,2.2-2.2h30c1.2,0,2.2,1,2.2,2.2V208
				C188.6,209.2,187.6,210.2,186.4,210.2z"/>
			<path class="st2" d="M222,210.2h-30c-1.2,0-2.2-1-2.2-2.2v-11.4c0-1.2,1-2.2,2.2-2.2h30c1.2,0,2.2,1,2.2,2.2V208
				C224.3,209.2,223.3,210.2,222,210.2z"/>
			<path class="st1" d="M257.8,210.2h-30c-1.2,0-2.2-1-2.2-2.2v-11.4c0-1.2,1-2.2,2.2-2.2h30c1.2,0,2.2,1,2.2,2.2V208
				C259.9,209.2,258.9,210.2,257.8,210.2z"/>
			<path class="st2" d="M151.3,244.3h-30c-1.2,0-2.2-1-2.2-2.2v-11.4c0-1.2,1-2.2,2.2-2.2h30c1.2,0,2.2,1,2.2,2.2v11.4
				C153.3,243.3,152.4,244.3,151.3,244.3z"/>
			<path class="st1" d="M186.4,244.3h-30c-1.2,0-2.2-1-2.2-2.2v-11.4c0-1.2,1-2.2,2.2-2.2h30c1.2,0,2.2,1,2.2,2.2v11.4
				C188.6,243.3,187.6,244.3,186.4,244.3z"/>
			<path class="st2" d="M222,244.3h-30c-1.2,0-2.2-1-2.2-2.2v-11.4c0-1.2,1-2.2,2.2-2.2h30c1.2,0,2.2,1,2.2,2.2v11.4
				C224.3,243.3,223.3,244.3,222,244.3z"/>
			<path class="st1" d="M257.8,244.3h-30c-1.2,0-2.2-1-2.2-2.2v-11.4c0-1.2,1-2.2,2.2-2.2h30c1.2,0,2.2,1,2.2,2.2v11.4
				C259.9,243.3,258.9,244.3,257.8,244.3z"/>
			<path class="st2" d="M277.8,227.2h-30c-1.2,0-2.2-1-2.2-2.2v-11.4c0-1.2,1-2.2,2.2-2.2h30c1.2,0,2.2,1,2.2,2.2V225
				C279.9,226.3,278.9,227.2,277.8,227.2z"/>
			<path class="st3" d="M312.9,227.2h-30c-1.2,0-2.2-1-2.2-2.2v-11.4c0-1.2,1-2.2,2.2-2.2h30c1.2,0,2.2,1,2.2,2.2V225
				C315.1,226.3,314.1,227.2,312.9,227.2z"/>
			<path class="st1" d="M348.6,227.2h-30c-1.2,0-2.2-1-2.2-2.2v-11.4c0-1.2,1-2.2,2.2-2.2h30c1.2,0,2.2,1,2.2,2.2V225
				C350.9,226.3,349.9,227.2,348.6,227.2z"/>
			<path class="st1" d="M384.3,227.2h-30c-1.2,0-2.2-1-2.2-2.2v-11.4c0-1.2,1-2.2,2.2-2.2h30c1.2,0,2.2,1,2.2,2.2V225
				C386.4,226.3,385.4,227.2,384.3,227.2z"/>
			<path class="st2" d="M293.5,210.2h-30c-1.2,0-2.2-1-2.2-2.2v-11.4c0-1.2,1-2.2,2.2-2.2h30c1.2,0,2.2,1,2.2,2.2V208
				C295.8,209.2,294.8,210.2,293.5,210.2z"/>
			<path class="st1" d="M328.9,210.2h-30c-1.2,0-2.2-1-2.2-2.2v-11.4c0-1.2,1-2.2,2.2-2.2h30c1.2,0,2.2,1,2.2,2.2V208
				C330.9,209.2,330,210.2,328.9,210.2z"/>
			<path class="st2" d="M364.4,210.2h-30c-1.2,0-2.2-1-2.2-2.2v-11.4c0-1.2,1-2.2,2.2-2.2h30c1.2,0,2.2,1,2.2,2.2V208
				C366.6,209.2,365.6,210.2,364.4,210.2z"/>
			<path class="st1" d="M400.1,210.2h-30c-1.2,0-2.2-1-2.2-2.2v-11.4c0-1.2,1-2.2,2.2-2.2h30c1.2,0,2.2,1,2.2,2.2V208
				C402.3,209.2,401.4,210.2,400.1,210.2z"/>
			<path class="st2" d="M293.5,244.3h-30c-1.2,0-2.2-1-2.2-2.2v-11.4c0-1.2,1-2.2,2.2-2.2h30c1.2,0,2.2,1,2.2,2.2v11.4
				C295.8,243.3,294.8,244.3,293.5,244.3z"/>
			<path class="st1" d="M328.9,244.3h-30c-1.2,0-2.2-1-2.2-2.2v-11.4c0-1.2,1-2.2,2.2-2.2h30c1.2,0,2.2,1,2.2,2.2v11.4
				C330.9,243.3,330,244.3,328.9,244.3z"/>
			<path class="st2" d="M364.4,244.3h-30c-1.2,0-2.2-1-2.2-2.2v-11.4c0-1.2,1-2.2,2.2-2.2h30c1.2,0,2.2,1,2.2,2.2v11.4
				C366.6,243.3,365.6,244.3,364.4,244.3z"/>
			<path class="st3" d="M400.1,244.3h-30c-1.2,0-2.2-1-2.2-2.2v-11.4c0-1.2,1-2.2,2.2-2.2h30c1.2,0,2.2,1,2.2,2.2v11.4
				C402.3,243.3,401.4,244.3,400.1,244.3z"/>
		</g>
	</g>
	<polygon class="st4" points="356.9,99.2 375.1,95.9 389.8,242.1 375.1,244.9 	"/>
	<g>
		<ellipse class="st5" cx="256.4" cy="246.2" rx="175.5" ry="7.1"/>
		<g>
			<g>
				<path class="st6" d="M375.1,244.9H135.9V97.8c0-5.1,4.2-9.3,9.3-9.3h220.5c5.1,0,9.3,4.2,9.3,9.3v147.1L375.1,244.9L375.1,244.9
					z"/>
				<path class="st7" d="M375.1,109.2H135.9V97.7c0-5.1,4.2-9.3,9.3-9.3h220.5c5.1,0,9.3,4.2,9.3,9.3v11.5H375.1z"/>
				<g>
					<rect x="147.9" y="166" class="st8" width="98.1" height="61.5"/>
					<rect x="255.3" y="153.5" class="st8" width="49.1" height="34.8"/>
					<rect x="255.3" y="192.7" class="st9" width="49.1" height="34.8"/>
					<g>
						<g>
							<polyline class="st10" points="359.9,225.2 359.9,227.4 357.6,227.4 							"/>
							<line class="st11" x1="353.6" y1="227.4" x2="315" y2="227.4"/>
							<polyline class="st10" points="312.9,227.4 310.8,227.4 310.8,225.2 							"/>
							<line class="st12" x1="310.8" y1="220.6" x2="310.8" y2="158.1"/>
							<polyline class="st10" points="310.8,155.7 310.8,153.5 312.9,153.5 							"/>
							<line class="st11" x1="317" y1="153.5" x2="355.6" y2="153.5"/>
							<polyline class="st10" points="357.6,153.5 359.9,153.5 359.9,155.7 							"/>
							<line class="st12" x1="359.9" y1="160.4" x2="359.9" y2="222.9"/>
						</g>
					</g>
					<rect x="155.3" y="171.7" class="st8" width="43.9" height="6.5"/>
					<rect x="155.3" y="182.2" class="st8" width="33.1" height="2.7"/>
					<g>
						<line class="st13" x1="155.3" y1="192.1" x2="237.6" y2="192.1"/>
						<line class="st13" x1="155.3" y1="201.7" x2="237.6" y2="201.7"/>
						<line class="st13" x1="155.3" y1="211.3" x2="237.6" y2="211.3"/>
						<line class="st13" x1="155.3" y1="220.9" x2="237.6" y2="220.9"/>
					</g>
				</g>
				<rect x="147.9" y="124.5" class="st14" width="98.1" height="35.2"/>
				<rect x="255.3" y="123.9" class="st9" width="104.7" height="22.5"/>
				<path class="st6" d="M158.4,99.1c0,1.8-1.5,3.3-3.3,3.3s-3.3-1.5-3.3-3.3s1.5-3.3,3.3-3.3C157,95.8,158.4,97.3,158.4,99.1z"/>
				<path class="st6" d="M172.3,99.1c0,1.8-1.5,3.3-3.3,3.3s-3.3-1.5-3.3-3.3s1.5-3.3,3.3-3.3C170.8,95.8,172.3,97.3,172.3,99.1z"/>
				<path class="st6" d="M186,99.1c0,1.8-1.5,3.3-3.3,3.3s-3.3-1.5-3.3-3.3s1.5-3.3,3.3-3.3S186,97.3,186,99.1z"/>
			</g>
			<path class="st15" d="M371.4,89.5c-25,73.2-94.4,125.9-176.1,125.9h-59.4V245H375V96C375.1,93.2,373.6,90.8,371.4,89.5z"/>
		</g>
		<path class="st5" d="M453.9,246.7c0,1.3-12.9,2.4-28.9,2.4c-15.9,0-28.9-1.1-28.9-2.4s12.9-2.4,28.9-2.4
			C440.9,244.3,453.9,245.3,453.9,246.7z"/>
		<path class="st5" d="M130.8,245.1c0,0.8-7.2,1.4-16.2,1.4c-8.9,0-16.2-0.6-16.2-1.4s7.2-1.4,16.2-1.4
			C123.4,243.7,130.8,244.3,130.8,245.1z"/>
		<polygon class="st16" points="152.5,128.2 178.9,132.5 173.8,162.6 146.5,159.6 135.8,171.7 135.9,146.4 		"/>
		<g>
			<path class="st17" d="M383.1,112.5c0,0-2.9-3.5-3.3-6.1s-2.1-11.3-3.4-11.3s-1.4,3.7-1.3,6.3c0.1,2.6-1.3,5.6,0,6.9
				c1.2,1.3,3.5,7.6,3.5,7.6L383.1,112.5z"/>
			<path class="st18" d="M406.6,136.4l0.8-4.4c0,0-11.7-4.5-15-7.7c-4.1-4-10.6-15.2-10.6-15.2l-6.2,3c0,0,3.6,12.3,6.7,17.1
				c5.5,8.7,20,17.9,20,17.9L406.6,136.4z"/>
			<path class="st17" d="M406.6,128.5c8.7-2.3,9-13.6,9-13.6l5.1,2.6l0.5,3.3c-0.7,2.3-1.7,3.9-3.4,5.4c-1.3,3.4-1.1,6.4-1.1,6.4
				s-4.6,1.6-7.4,2l-1.3-1.5c0.7-1.3,1.2-2.7,1.5-3.7C408.5,129.3,407.5,129,406.6,128.5z"/>
			<g>
				<path class="st19" d="M436.3,233.9c0,0,4,4.5,3.9,6.3c-0.2,1.8-7.9,5.7-9.6,6.3c-1.8,0.5-5,1-4.7-0.2c0.3-1.3,3-2.7,4.8-4.4
					c1.8-1.8,2.8-7.1,2.8-7.1L436.3,233.9z"/>
				<path class="st19" d="M409.5,237.9c0,0,1.1,5.1,0,7.7s-12.7,2.1-13.8,1.1c-1.1-1-0.4-2.2,3.2-3.2s7.5-4.3,7.5-5.6
					C406.4,236.5,409.5,237.9,409.5,237.9z"/>
				<path class="st20" d="M409.4,237.8c-0.4,2-1.2,5.2-3.1,6.1c-2.4,1.1-8.4,0.9-11,1.6c-0.2,0.4,0,0.8,0.4,1.2
					c1.1,1,12.8,1.5,13.8-1.1c1.1-2.6,0-7.7,0-7.7S409.4,237.9,409.4,237.8z"/>
				<path class="st21" d="M401,167.6c0,0-2.1,9.7-1.5,19.9s2.2,22.9,2.2,22.9s1.1,13,2.1,17.7s1.4,11.5,1.4,11.5h4.9
					c0,0,3.6-13.7,3.6-18.5c0-4.3-0.4-7.2-2.4-11.6c-0.8-1.8-1.1-3.8-0.7-5.7c0.1-0.6,0.3-1.2,0.6-1.8c1.2-2.5,4-12.1,4-12.1
					l2.3-14.5v-6.2L401,167.6z"/>
				<path class="st22" d="M401,167.6c0,0-2.1,9.7-1.5,19.9s2.2,22.9,2.2,22.9s1.1,13,2.1,17.7s1.4,11.5,1.4,11.5h4.9
					c0,0,3.6-13.7,3.6-18.5c0-4.3-0.4-7.2-2.4-11.6c-0.8-1.8-1.1-3.8-0.7-5.7c0.1-0.6,0.3-1.2,0.6-1.8c1.2-2.5,4-12.1,4-12.1
					l2.3-14.5v-6.2L401,167.6z"/>
				<path class="st20" d="M435.3,234.2c0.7,1.7,1.6,4.3,1,5.4c-3.4,6.4-7.5,6-9.6,7.5c1,0.1,2.7-0.2,3.8-0.5
					c1.8-0.5,9.5-4.5,9.6-6.3c0.2-1.8-3.9-6.3-3.9-6.3L435.3,234.2z"/>
				<path class="st22" d="M411,202c0.5-1,1.3-3.4,2.1-5.7l-2.5-15.2l-4.3-4.7c0,0,3,10.2,1.6,22c-0.4,3.3-0.8,8.6,1,11.4
					c1.8,2.7,3,7,2,11.5c-0.9,3.8-1.2,12.2-0.8,18.3h0.1c0,0,3.6-13.7,3.6-18.5c0-4.3-0.4-7.2-2.4-11.6c-0.8-1.8-1.1-3.8-0.7-5.7
					C410.6,203.1,410.9,202.5,411,202z"/>
				<path class="st21" d="M423.1,169.1c0,0,3.5,5.8,3.2,13.1s-1.8,18.3,0.3,21.1c2.1,2.9,2.6,2.6,4.6,6.6c2.2,4.4,6.3,25.1,6.3,25.1
					s-3.4,2.3-4.9,2.4c0,0-14.3-25.5-16.2-29.4c-2.2-4.8-13.3-39-12.5-43.6s4,2.5,4,2.5L423.1,169.1z"/>
				<path class="st22" d="M437.4,234.9c-0.4-1.9-4.1-20.6-6.3-25c-2-4-2.4-3.7-4.6-6.6c-2.1-2.9-0.6-13.8-0.3-21.1
					c0.1-3-0.4-5.7-1-7.9l-2-1.6l-3.4,2.5c0,0,2.7,8.1,2.7,15.8s-1.1,10.1,2.5,14.4c3.6,4.3,6.6,10.1,7.7,15.3
					C433.6,224.2,434.9,231.5,437.4,234.9z"/>
			</g>
			<path class="st23" d="M402.3,147.1l2.2-6.1c0,0-11.7-4.6-18.2-10.8c-4.6-4.4-10.7-18.2-10.7-18.2s3.7,12.3,6.7,17.1
				C387,136.7,399.4,145.2,402.3,147.1z"/>
			<path class="st17" d="M411.8,109.2c0,0-3,0.7-4.7,3.4c-1.7,2.6-2,5.4-2.8,6.4c-0.9,0.9-1.4,1.2-1.4,1.2s0,0.9,1.1,1.5
				c0,0-0.8,4.3,1.7,6.2c3.1,2.3,7.2,1.9,10.4-0.2c3.2-2.2,4.6-4.2,5.5-8C422.4,115.9,418.9,107.3,411.8,109.2z"/>
			<path class="st18" d="M417,132c0,0,3,0,5.5,1.4c1.1,0.6,1.7,1.7,1.8,2.9c0.6,6.3,2.6,29.7,2.6,36.9c0,0-16.2,5.4-28.4-1.1
				l2.9-25.1c0.2-3.6,4.1-14.9,5.9-15C407.4,132,410,135.8,417,132z"/>
			<path class="st24" d="M404,174.2l11.5,1c6.5-0.4,11.4-2,11.4-2c0-5.2-1.1-19.1-1.9-28.6c-1.2-2.4-7.5-10-7-1.4
				C419.3,161.7,404,174.1,404,174.2L404,174.2z"/>
			<g>
				
					<rect x="404.7" y="138.1" transform="matrix(0.1885 -0.9821 0.9821 0.1885 172.2558 542.7695)" class="st8" width="19.8" height="58.1"/>
				<path class="st6" d="M402.5,165c-0.7,3.9-4.5,6.4-8.4,5.7s-6.4-4.5-5.7-8.4c0.7-3.9,4.5-6.4,8.4-5.7S403.4,161.1,402.5,165z"/>
				
					<rect x="421.1" y="149.1" transform="matrix(0.1885 -0.9821 0.9821 0.1885 181.6564 547.6516)" class="st8" width="2.2" height="29.6"/>
				
					<rect x="415" y="158.2" transform="matrix(0.1885 -0.9821 0.9821 0.1885 173.2094 543.4284)" class="st8" width="0.9" height="17.4"/>
				
					<rect x="420.4" y="156" transform="matrix(0.1885 -0.9821 0.9821 0.1885 173.803 551.8448)" class="st8" width="0.9" height="29.6"/>
				
					<rect x="417.6" y="160.9" transform="matrix(0.1885 -0.9821 0.9821 0.1885 168.9131 551.2454)" class="st8" width="0.9" height="25"/>
				<g>
					<path class="st18" d="M397.9,160.9c-0.2,1-1.1,1.6-2.1,1.4c-1-0.2-1.6-1.1-1.4-2.1s1.1-1.6,2.1-1.4S398,160,397.9,160.9z"/>
					<path class="st18" d="M391.3,165.6c0.4-2.1,2.4-3.4,4.5-3s3.4,2.4,3,4.5"/>
				</g>
			</g>
			<path class="st8" d="M422.6,162.8l3.6-0.2c0,0-3.4,9.5-10.7,15l-4.9-1.2l4.5-6.9L422.6,162.8z"/>
			<path class="st17" d="M412.3,172.7l-3.3,1.6c0,0-4.1,1-6.2,0.4c0,0,3.4,3,6.2,2.9c2.8-0.1,5.1-2.4,5.1-2.4L412.3,172.7z"/>
			<path class="st18" d="M418.9,134.6l0.4-2.4c0,0,5.5,0.3,7.7,7.5s2.9,16.9,0.8,20.4s-8.1,13.9-15,16.3c0,0-3.5-1.8-3.1-2.7
				c5-9.2,5.8-13.3,10.9-17.1c0,0-3.9-13.8-2.8-18.8"/>
			<path class="st25" d="M425.3,138.4c1.2,3,2.9,10.4,2.7,14.4c-0.2,4-0.9,6.8-3.2,9.2c-2.2,2.3-6.3,10.7-9.7,12.3
				c-1.7,0.8-1,0.9-2.7,1.8l0.5,0.3c6.8-2.5,12.9-12.8,15-16.3s1.4-13.2-0.8-20.4c-2.2-7.5-7.7-7.5-7.7-7.5
				C418.4,133.4,423.9,135.4,425.3,138.4z"/>
			<path class="st19" d="M414.4,111.3c0,0-6.6-0.8-12.6,1c0,0,0.3,0.9,3.6,0.8c1.6-0.1-3.1,1-3.1,1s2.3,3.2,11.3,2.3
				C422.6,115.5,414.4,111.3,414.4,111.3z"/>
			<path class="st26" d="M406.6,128.5c8.7-2.3,9-13.6,9-13.6l5.1,2.6l0.5,3.3c-0.7,2.3-1.7,3.9-3.4,5.4c-1.3,3.4-1.1,6.4-1.1,6.4
				s-4.6,1.6-7.4,2l-1.3-1.5c0.7-1.3,1.2-2.7,1.5-3.7C408.5,129.3,407.5,129,406.6,128.5z"/>
			<path class="st19" d="M417.9,111.2c0,0-6.8,1.5-0.4,8c2.3,2.4-2.7,7.6-0.4,10.4c1.2,1.5,2.3,1.8,2.3,1.8s-0.7-1,1.3-4
				c2-2.9,3.9-6.5,2.5-10.7C421.9,112.4,417.9,111.2,417.9,111.2z"/>
			<path class="st19" d="M419.9,125.4c-0.1,1.3-0.1,2.4,0.1,3.2c0.2-0.4,0.4-0.8,0.8-1.2c2-2.9,3.9-6.5,2.5-10.7v-0.1l-15-3.3
				C408.1,113.2,420.6,116.5,419.9,125.4z"/>
			<g>
				<path class="st27" d="M401.4,109.9c0,0,15.4,7.9,24.3,10.6c0.3,0.1,0.5-0.3,0.3-0.5l-0.7-0.6c-0.3-0.3-0.5-0.8-0.4-1.3
					c0.5-2.4,1.3-9.8-7-12.5c-2.9-0.9-7-1.1-10.4,3.2c-0.7,0.8-1.9,1.1-2.9,0.8c-1.8-0.7-4.3-1.5-4.7-1.1
					C399.4,108.9,401.4,109.9,401.4,109.9z"/>
				<path class="st28" d="M414.9,114.7c5.2,0.5,7.3-3.2,8.1-6.1c2.9,3.3,2.4,7.7,2,9.4c-0.1,0.5,0.1,0.9,0.4,1.3l0.7,0.6
					c0.2,0.2,0,0.6-0.3,0.5c-4.6-1.3-10.8-4.1-15.9-6.4C411,114.2,412.6,114.4,414.9,114.7z"/>
			</g>
			<path class="st17" d="M415.9,119.2c0,0,2.5-1.7,3.2,0s-0.6,4-2.1,3.9"/>
			<path class="st26" d="M415.9,119.2c0,0,2.5-1.7,3.2,0s-0.6,4-2.1,3.9"/>
		</g>
		<g>
			<g>
				
					<rect x="129" y="106.9" transform="matrix(0.1722 -0.9851 0.9851 0.1722 -14.7407 253.9877)" class="st8" width="29.4" height="57.7"/>
				
					<rect x="130.2" y="109.5" transform="matrix(0.1722 -0.9851 0.9851 0.1722 -15.9175 252.5365)" class="st29" width="24.2" height="52.4"/>
				
					<rect x="132.4" y="113" transform="matrix(0.1722 -0.9851 0.9851 0.1722 -13.6151 236.2375)" class="st8" width="2.7" height="26.4"/>
				
					<rect x="157.7" y="120.4" transform="matrix(0.1722 -0.9851 0.9851 0.1722 3.2803 262.8784)" class="st8" width="0.7" height="18.1"/>
				
					<rect x="153.8" y="125.5" transform="matrix(0.1722 -0.9851 0.9851 0.1722 -1.2788 260.0821)" class="st8" width="0.7" height="10.6"/>
				
					<rect x="118.7" y="129.6" transform="matrix(0.1722 -0.9851 0.9851 0.1722 -30.3799 235.2215)" class="st6" width="12.1" height="12.1"/>
				
					<rect x="132.9" y="132.1" transform="matrix(0.1722 -0.9851 0.9851 0.1722 -21.1215 251.2241)" class="st6" width="12.1" height="12.1"/>
				
					<rect x="150" y="132" transform="matrix(0.1722 -0.9851 0.9851 0.1722 -9.8084 270.4937)" class="st6" width="12.1" height="18.1"/>
				<g>
					<line class="st30" x1="120.7" y1="131.6" x2="129.3" y2="133.1"/>
					<line class="st30" x1="120.3" y1="133.9" x2="128.9" y2="135.4"/>
					<line class="st30" x1="119.9" y1="136.1" x2="128.5" y2="137.7"/>
					<line class="st30" x1="119.5" y1="138.4" x2="128.1" y2="139.9"/>
				</g>
				<g>
					<line class="st30" x1="135.1" y1="134.1" x2="143.8" y2="135.6"/>
					<line class="st30" x1="134.8" y1="136.4" x2="143.3" y2="137.9"/>
					<line class="st30" x1="134.3" y1="138.7" x2="142.9" y2="140.2"/>
					<line class="st30" x1="133.9" y1="141" x2="142.5" y2="142.5"/>
				</g>
				<g>
					<line class="st31" x1="149.8" y1="136.6" x2="163.1" y2="139"/>
					<line class="st31" x1="149.3" y1="138.9" x2="162.8" y2="141.3"/>
					<line class="st31" x1="148.9" y1="141.2" x2="162.3" y2="143.6"/>
					<line class="st31" x1="148.5" y1="143.5" x2="161.9" y2="145.9"/>
				</g>
				<path class="st8" d="M146.1,120.4l-2.1,4.4h-4.7c0,0-16.2,9.4-19.3,20.5c-3.1,11.1-2.6-8.4-2.6-8.4l6.3-11L146.1,120.4z"/>
			</g>
			<path class="st19" d="M112.5,126.2l-0.8-7.3c0,0-0.8,9.5-4.4,11.7s-9.6,2.2-9.1,9c0,0-0.4,1.7,2.9,4.2s1.5,6-1.7,11
				c-5.6,8.7,1.4,17,10.8,13.7c9.5-3.2,7.1-22.1,7.1-22.1L112.5,126.2z"/>
			<path class="st17" d="M120.1,133.5c0,0-1.1,3.1-0.6,5.8c0.4,2.7-7-4.8-7-4.8s1.6-2.6,1.8-6.1
				C114.5,124.9,120.1,133.5,120.1,133.5z"/>
			<path class="st17" d="M141.3,154.5c0,0,2.3-0.6,3.1-1.5c0.7-0.9,4.3-3.7,6.2-3.6c1.4,0.1-1.8,1.6-0.6,1.9c2.3,0.6,3.1-0.3,7,1.2
				c2.8,1.1,1.1,1.3-0.7,1s-9.3,3.3-14,3.1"/>
			<g>
				<path class="st17" d="M136.3,119.8l4-1.7c0,0,2.7-0.2,5.4,0.8c2.6,1,4.4,2.9,4.4,2.9s-5.6-0.6-6.8,0.6c-0.5,0.5-0.1,1.3,1,2.4
					c1.2,1.1-3.9-2.1-5.7-1.9C136.5,123,136.3,119.8,136.3,119.8z"/>
				<path class="st21" d="M122.5,127.6l2.8-6.6c0,0,8.1-2,12.1-2.1l2.1,4l-13.9,6.3L122.5,127.6z"/>
				<path class="st32" d="M122.5,127.6l2.8-6.6c0,0,8.1-2,12.1-2.1l2.1,4l-13.9,6.3L122.5,127.6z"/>
			</g>
			<path class="st27" d="M111.5,136.6c0,0-4.8,0-6,3s-0.4,5,1.3,7.5c1.7,2.5,0.9,7.5-2.9,9.7c-7,4.1-3.2,14.4,6.2,11.7
				c9.5-2.6,4.8-18.2,4.8-18.2L111.5,136.6z"/>
			<g>
				<g>
					<path class="st19" d="M108.7,238c0,0-1,1.3-0.6,6.7c0.1,1.1,13.5,2.1,13.5,1.4c0-2.5-7.3-3.6-8.6-7c-0.4-1-2.5-1-2.5-1
						L108.7,238L108.7,238z"/>
					<path class="st33" d="M108.7,238c0,0-1,1.3-0.6,6.7c0.1,1.1,13.5,2.1,13.5,1.4c0-2.5-7.3-3.6-8.6-7c-0.4-1-2.5-1-2.5-1
						L108.7,238L108.7,238z"/>
				</g>
				<path class="st34" d="M110.8,171.7c0,0-3.3-1.4-2.3,11.7c0.7,9.2,3.8,21.4,2.6,23.8c-1.2,2.3-4.3,5.4-4,14s0.4,18.6,0.4,18.6
					l6.5,0.9c0,0,4.5-27.8,5.9-32.4c2.7-9.1,2.7-24.4,2.7-24.4L110.8,171.7z"/>
				<path class="st35" d="M113.8,177.5l-5.5,1.5c0,1.3,0.1,2.8,0.2,4.5c0.7,9.2,3.8,21.4,2.6,23.8c-1.2,2.3-4.3,5.4-4,14
					s0.4,18.6,0.4,18.6l0.8,0.1c0.5-2.1,1.1-5.8,0.8-12c-0.4-11.2,1.7-15.6,4-19s0.7-10.3-0.3-15.2c-1.6-7.8,2.7-15.9,2.7-15.9
					L113.8,177.5z"/>
				<polygon class="st34" points="113.5,185.1 109.3,183.4 120,208.3 122.2,197.4 				"/>
				<path class="st19" d="M116.9,234.7l-2.8,1.5c0,0-2.1,2.8-0.5,4.5s6.6,3.7,8.1,4.5s5.2,1.5,5.5,0.4s-4.6-4.4-4.6-4.4l-3.4-3.1
					l0.9-1.3L116.9,234.7z"/>
				<path class="st36" d="M122.7,245.5c-2.3-1.3-4.2-2.8-5.9-4.8c-1.6-1.9-1.2-4.2-0.7-5.6l-2,1.1c0,0-2.1,2.8-0.5,4.5
					s6.6,3.7,8.1,4.5C122,245.3,122.3,245.4,122.7,245.5z"/>
				<path class="st18" d="M123.9,171.8c0,0,10,20.7,11.4,29.2c0.9,5.3-16.1,37-16.1,37l-4.6-2.3c0,0,1.2-22.6,7.1-28.5
					c1.7-1.7,0.8-4.2-0.7-6c-7.9-9.6-13.7-17.9-13.3-24C108.5,164.7,123.9,171.8,123.9,171.8z"/>
				<path class="st35" d="M113,182.4c-3-4-2.9-8.9-2.4-11.8c-1.6,1.2-2.7,3.2-3,6.6c-0.4,6,5.4,14.4,13.3,24c1.5,1.9,2.4,4.3,0.7,6
					c-5.9,5.9-7.1,28.5-7.1,28.5l1,0.3c0.6-4.4,2.8-13.2,3.5-16.8c1.7-8.8,5.2-9.7,5.7-15.6C125.2,197.6,117.6,188.5,113,182.4z"/>
			</g>
			<path class="st17" d="M126.3,117.4c0,0,2.2,1.8,2.4,4.7c0.3,2.9-0.7,5.3-0.3,6.4c0.3,1.1,0.7,1.6,0.7,1.6s-0.4,0.8-1.6,0.8
				c0,0-1.1,3.9-4,4.3c-3.5,0.6-6.7-1.4-8.4-4.5c-1.7-3.1-2-5.4-1.2-8.8C114.8,118.4,121.3,112.8,126.3,117.4z"/>
			<path class="st26" d="M122.5,135.3c-6.2-5.5-1.7-14.9-1.7-14.9h-5.3l-1.8,2.5c-0.4,2.2-0.2,3.9,0.5,5.9c-0.3,3.3-1.8,5.7-1.8,5.7
				s3.1,3.2,5.2,4.7l1.7-0.7c-0.1-1.3,0.1-2.7,0.4-3.7C120.6,135.2,121.5,135.3,122.5,135.3z"/>
			<path class="st21" d="M112.7,133.8c0,0-2.8,2-3.8,5.6c-1.3,4.4-1.3,9.2-0.3,16.2s-1,19-1,19s11.9,4.8,19.2,1.9
				c0,0-1.1-9.7-0.5-13.2s-2.9-17.5-5.2-21.4c-1.5-2.6-1.8-3.6-1.8-3.6S117.6,138.4,112.7,133.8z"/>
			<path class="st37" d="M120.1,151.1h-6.2c0,0,3.2,12.9,12.8,19.8c0,0-0.7-4.4-0.3-7.5C126.8,160.1,120.1,151.1,120.1,151.1z"/>
			<path class="st19" d="M132.5,120.4c1,3.4-2.9,3.2-7.3,2.2c-2.4-0.6-6.3,0.4-7.7,3.3c-1.6,3.2,3.3,10.6-7.9,10.6
				c-1.2,0-0.6-11.2,2.8-15.1C119.1,113.8,131.5,117,132.5,120.4z"/>
			<path class="st17" d="M119.6,124.7c0,0-0.5-2.4-2.1-2.3c-1.7,0.2-2.7,5,0.1,5"/>
			<path class="st34" d="M126,186.2"/>
			<path class="st38" d="M114.7,179"/>
			<path class="st21" d="M112.9,148.8c1.3,3.8,6,12.5,10,14.7c4,2.1,6.8,1.7,10.9,0s11.1-6.1,11.1-6.1l-2.3-4.6c0,0-4.5,1.4-5.9,1.6
				c-1.3,0.2-6.4,0.8-8,2c0,0-6.2-14.4-8.9-16.8C116.5,136.4,110.9,142.6,112.9,148.8z"/>
			<path class="st32" d="M145,157.3c-7.5,3.7-14.3,5.5-19,4.9s-10-11.1-11.3-13.6c-0.6-1.2-1.3-3.3-1.8-5.3c-0.5,1.6-0.6,3.5,0,5.4
				c1.3,3.8,6,12.5,10,14.7c4,2.1,6.8,1.7,10.9,0C138,161.7,145,157.3,145,157.3z"/>
			<path class="st26" d="M119.6,124.7c0,0-0.5-2.4-2.1-2.3c-1.7,0.2-2.7,5,0.1,5"/>
			<polygon class="st27" points="130.1,119.8 110.5,125 111.1,121.4 			"/>
			<g>
				<path class="st27" d="M133.8,118.9c0,0-15.4,4-23.9,4.5c-0.3,0-0.4-0.4-0.2-0.5l0.7-0.4c0.4-0.2,0.6-0.6,0.6-1.1
					c0.1-2.2,0.9-9.1,8.8-9.8c2.8-0.3,6.5,0.5,8.7,5c0.4,0.9,1.4,1.4,2.4,1.3c1.8-0.2,4.2-0.5,4.4-0.1
					C135.8,118.4,133.8,118.9,133.8,118.9z"/>
				<path class="st28" d="M120.8,120.4c-4.8-0.6-5.8-4.3-6-7.1c-3.3,2.4-3.7,6.4-3.7,8c0,0.4-0.2,0.8-0.6,1.1l-0.7,0.4
					c-0.3,0.1-0.1,0.5,0.2,0.5c4.4-0.3,10.5-1.4,15.5-2.5C124.3,120.8,122.8,120.7,120.8,120.4z"/>
			</g>
		</g>
		<path class="st16" d="M348.8,115.9c-0.7,0-1.2,0.4-1.3,1.1l-1.2,16.1c-0.1,0-0.2,0-0.3,0l-22.8-0.9l1.1-12.3
			c0-0.7-0.4-1.2-1.1-1.3c-0.7,0-1.2-2.4-1.3-1.8l-1.2,16.4c-0.2,0.2-0.3,0.5-0.2,0.8c0,0.2,0.1,0.3,0.1,0.4l-1.1,14.3
			c-0.1,0.2-0.2,0.5-0.2,0.7c0,0.1,0,0.2,0.1,0.3l-1.1,14.6c-0.1,0.2-0.1,0.4-0.1,0.6c0,0.1,0,0.1,0,0.2l-1.1,14.8
			c0,0.1-0.1,0.3,0,0.5l0,0l-4.6,62.2l-16.9,15.8c0,0.7,0.4,1.2,1.1,1.3c0.1,0,0.1,0,0.2,0c0.6-0.1,1-0.5,1-1.1l16.4-13.8l21.6-0.1
			l-14.7,13.8c0,0.7,0.4,1.2,1.1,1.3c0.1,0,0.1,0,0.2,0c0.6-0.1,1-0.5,1-1.1l16.7-15.2c0.5-0.2,0.8-0.7,0.8-1.2
			c0-0.4-0.3-0.7-0.6-0.9l1-13.5c0.3-0.2,0.5-0.6,0.5-1.1c0-0.3-0.2-0.5-0.4-0.7l1-14c0.1-0.2,0.2-0.5,0.2-0.8
			c0-0.1-0.1-0.3-0.1-0.4l6.9-94C349.9,116.5,349.4,115.9,348.8,115.9z M346,135.4l-1,13.1l-23.1-0.4l1-13.6L346,135.4z M343.9,164
			l-23.1-0.4l1-13.1l23.1,0.4L343.9,164z M342.9,179.5l-23.1-0.4l1-13.1l23.1,0.4L342.9,179.5z M341.8,195l-23.1-0.4l1-13.1
			l23.1,0.4L341.8,195z M340.5,210.5l-23.1-0.4l1-13.1l23.1,0.4L340.5,210.5z M339.4,226.1l-23.1-0.4l1-13.1l23.1,0.4L339.4,226.1z
			 M315.3,241.2l1-13.1l23.1,0.4l-1,13.1L315.3,241.2z"/>
		<g>
			<g>
				<path class="st19" d="M296.9,259c-0.1,0-0.1,0-0.2,0c-0.6-0.1-1.1-0.7-0.9-1.4l25.6-139.7c0.1-0.6,0.7-1.1,1.4-0.9
					c0.6,0.1,1.1,0.7,0.9,1.4L298.1,258C298,258.6,297.5,259,296.9,259z"/>
			</g>
			<g>
				<path class="st19" d="M322.5,259c-0.1,0-0.1,0-0.2,0c-0.6-0.1-1.1-0.7-0.9-1.4L347,117.9c0.1-0.6,0.7-1.1,1.4-0.9
					c0.6,0.1,1.1,0.7,0.9,1.4L323.8,258C323.6,258.6,323.1,259,322.5,259z"/>
			</g>
			<g>
				<line class="st39" x1="343.9" y1="134.9" x2="319.4" y2="134.9"/>
				<line class="st39" x1="341.4" y1="150.2" x2="316.5" y2="150.2"/>
				<line class="st39" x1="338.8" y1="165.5" x2="313.9" y2="165.5"/>
				<line class="st39" x1="336.3" y1="180.8" x2="311" y2="180.8"/>
				<line class="st39" x1="333.8" y1="196.1" x2="308.4" y2="196.1"/>
				<line class="st39" x1="331.3" y1="211.4" x2="305.5" y2="211.4"/>
				<line class="st39" x1="328.8" y1="226.7" x2="302.9" y2="226.7"/>
				<polyline class="st39" points="326.3,241.9 312.1,241.9 300,241.9 				"/>
			</g>
		</g>
	</g>
</g>
<g>
	<path class="st18" d="M96.7,52.3l-5.2,16.3h-5.8l-2.6-8.7l-2.8,8.7h-5.9l-5.2-16.3h5.6l2.9,9.2l3-9.2h5l2.8,9.4l3-9.4
		C91.5,52.3,96.7,52.3,96.7,52.3z"/>
	<path class="st18" d="M110.3,63.2h-8.8c0.2,0.5,0.5,0.8,0.9,1.1c0.4,0.3,1,0.4,1.6,0.4s1-0.1,1.4-0.2s0.8-0.4,1.2-0.7l2.7,2.8
		c-1.2,1.4-3.1,2-5.5,2c-1.5,0-2.9-0.3-4-0.8c-1.2-0.6-2.1-1.4-2.7-2.4s-1-2.1-1-3.4s0.3-2.4,0.9-3.4s1.5-1.8,2.6-2.3
		c1.1-0.6,2.3-0.8,3.7-0.8c1.3,0,2.5,0.3,3.5,0.8c1.1,0.5,1.9,1.3,2.5,2.3s0.9,2.2,0.9,3.6C110.3,62.1,110.3,62.5,110.3,63.2z
		 M102.1,59.4c-0.4,0.3-0.6,0.7-0.7,1.3h4.1c-0.1-0.5-0.3-0.9-0.7-1.2c-0.4-0.3-0.8-0.5-1.3-0.5C102.8,59,102.3,59.1,102.1,59.4z"/>
	<path class="st18" d="M123.6,56.2c0.9,0.5,1.7,1.3,2.2,2.3s0.8,2.2,0.8,3.5s-0.3,2.5-0.8,3.5s-1.3,1.8-2.2,2.3s-2,0.8-3.1,0.8
		c-1.6,0-2.7-0.4-3.5-1.3v1h-5V51.1h5.2v5.4c0.7-0.7,1.8-1.1,3.2-1.1C121.6,55.4,122.6,55.7,123.6,56.2z M120.7,63.8
		c0.4-0.4,0.6-1.1,0.6-1.8s-0.2-1.4-0.6-1.8s-0.9-0.6-1.5-0.6s-1.1,0.2-1.5,0.6s-0.6,1-0.6,1.8s0.2,1.4,0.6,1.8s0.9,0.7,1.5,0.7
		S120.3,64.3,120.7,63.8z"/>
	<path class="st18" d="M129.9,68.3c-1.1-0.2-1.9-0.5-2.6-0.9l1.4-3.5c0.6,0.4,1.3,0.6,2.1,0.8c0.8,0.2,1.6,0.3,2.3,0.3
		c0.6,0,1-0.1,1.3-0.2c0.2-0.1,0.4-0.3,0.4-0.5s-0.2-0.3-0.5-0.4s-0.8-0.2-1.5-0.2c-1-0.1-1.9-0.3-2.6-0.5c-0.7-0.2-1.4-0.6-1.9-1.1
		c-0.5-0.6-0.8-1.4-0.8-2.4c0-0.8,0.2-1.6,0.7-2.2c0.5-0.7,1.2-1.2,2.2-1.6s2.2-0.6,3.5-0.6c1,0,1.9,0.1,2.8,0.3s1.7,0.4,2.4,0.8
		l-1.4,3.5c-1.1-0.6-2.3-0.9-3.7-0.9c-1.1,0-1.7,0.2-1.7,0.6c0,0.2,0.2,0.3,0.5,0.4s0.8,0.2,1.5,0.2c1,0.1,1.9,0.3,2.6,0.5
		c0.7,0.2,1.4,0.6,1.9,1.1c0.5,0.6,0.8,1.4,0.8,2.4c0,0.8-0.2,1.5-0.7,2.2c-0.5,0.6-1.2,1.2-2.2,1.6s-2.2,0.6-3.6,0.6
		C132,68.7,131,68.6,129.9,68.3z"/>
	<path class="st18" d="M141.6,54.1c-0.6-0.5-0.9-1.1-0.9-1.9s0.3-1.4,0.9-1.9s1.3-0.8,2.3-0.8s1.7,0.2,2.3,0.7s0.9,1.1,0.9,1.9
		s-0.3,1.5-0.9,2c-0.6,0.5-1.3,0.8-2.3,0.8C143,54.8,142.3,54.6,141.6,54.1z M141.3,55.9h5.2v12.7h-5.2V55.9z"/>
	<path class="st18" d="M158.3,67.9c-0.8,0.4-1.9,0.7-3.2,0.7c-1.8,0-3.1-0.4-4.1-1.3s-1.4-2.1-1.4-3.9v-3.3h-1.7v-3.8h1.7v-3.6h5.2
		v3.6h2.6v3.8h-2.6v3.2c0,0.4,0.1,0.7,0.3,0.9s0.5,0.3,0.8,0.3c0.4,0,0.8-0.1,1.2-0.3L158.3,67.9z"/>
	<path class="st18" d="M172.6,63.2h-8.8c0.2,0.5,0.5,0.8,0.9,1.1c0.4,0.3,1,0.4,1.6,0.4s1-0.1,1.4-0.2s0.8-0.4,1.2-0.7l2.7,2.8
		c-1.2,1.4-3.1,2-5.5,2c-1.5,0-2.9-0.3-4-0.8c-1.2-0.6-2.1-1.4-2.7-2.4c-0.6-1-1-2.1-1-3.4s0.3-2.4,0.9-3.4c0.6-1,1.5-1.8,2.6-2.3
		c1.1-0.6,2.3-0.8,3.7-0.8c1.3,0,2.5,0.3,3.5,0.8c1.1,0.5,1.9,1.3,2.5,2.3s0.9,2.2,0.9,3.6C172.8,62.1,172.8,62.5,172.6,63.2z
		 M164.4,59.4c-0.4,0.3-0.6,0.7-0.7,1.3h4.1c-0.1-0.5-0.3-0.9-0.7-1.2s-0.8-0.5-1.3-0.5C165.3,59,164.8,59.1,164.4,59.4z"/>
	<path class="st18" d="M181.6,54.1c-0.6-0.5-0.9-1.1-0.9-1.9s0.3-1.4,0.9-1.9s1.3-0.8,2.3-0.8s1.7,0.2,2.3,0.7s0.9,1.1,0.9,1.9
		s-0.3,1.5-0.9,2c-0.6,0.5-1.3,0.8-2.3,0.8C183,54.8,182.3,54.6,181.6,54.1z M181.3,55.9h5.2v12.7h-5.2V55.9z"/>
	<path class="st18" d="M190.6,68.3c-1.1-0.2-1.9-0.5-2.6-0.9l1.4-3.5c0.6,0.4,1.3,0.6,2.1,0.8c0.8,0.2,1.6,0.3,2.3,0.3
		c0.6,0,1-0.1,1.3-0.2c0.2-0.1,0.4-0.3,0.4-0.5s-0.2-0.3-0.5-0.4s-0.8-0.2-1.5-0.2c-1-0.1-1.9-0.3-2.6-0.5c-0.7-0.2-1.4-0.6-1.9-1.1
		c-0.5-0.6-0.8-1.4-0.8-2.4c0-0.8,0.2-1.6,0.7-2.2c0.5-0.7,1.2-1.2,2.2-1.6s2.2-0.6,3.5-0.6c1,0,1.9,0.1,2.8,0.3s1.7,0.4,2.4,0.8
		l-1.4,3.5c-1.1-0.6-2.3-0.9-3.7-0.9c-1.1,0-1.7,0.2-1.7,0.6c0,0.2,0.2,0.3,0.5,0.4s0.8,0.2,1.5,0.2c1,0.1,1.9,0.3,2.6,0.5
		c0.7,0.2,1.4,0.6,1.9,1.1c0.5,0.6,0.8,1.4,0.8,2.4c0,0.8-0.2,1.5-0.7,2.2c-0.5,0.6-1.2,1.2-2.2,1.6s-2.2,0.6-3.6,0.6
		C192.8,68.7,191.8,68.6,190.6,68.3z"/>
	<path class="st18" d="M222.8,55.6v12.7h-5v-1.2c-0.5,0.5-1,0.8-1.6,1.1c-0.6,0.2-1.3,0.4-2,0.4c-1.6,0-2.9-0.5-3.9-1.5
		s-1.5-2.5-1.5-4.4v-7h5.2v6.1c0,0.9,0.1,1.5,0.4,1.9c0.3,0.4,0.7,0.6,1.2,0.6s0.9-0.2,1.3-0.6c0.3-0.4,0.5-1.1,0.5-1.9v-6h5.4
		L222.8,55.6L222.8,55.6z"/>
	<path class="st18" d="M238.4,57.1c1,0.9,1.5,2.4,1.5,4.3v7.2h-5.5v-6.3c0-1.5-0.5-2.2-1.6-2.2c-0.6,0-1.1,0.2-1.5,0.6
		s-0.6,1.1-0.6,1.9v6h-5.5V56h5.2v1.3c0.5-0.5,1.1-0.9,1.8-1.1s1.4-0.4,2.2-0.4C236.1,55.7,237.4,56.2,238.4,57.1z"/>
	<path class="st18" d="M255.8,51.1v17.2h-5v-1c-0.8,0.9-1.9,1.3-3.5,1.3c-1.1,0-2.1-0.3-3.1-0.8s-1.7-1.3-2.2-2.3s-0.8-2.2-0.8-3.5
		s0.3-2.5,0.8-3.5s1.3-1.8,2.2-2.3s2-0.8,3.1-0.8c1.4,0,2.5,0.4,3.2,1.1v-5.4L255.8,51.1L255.8,51.1z M250,63.8
		c0.4-0.4,0.6-1.1,0.6-1.8s-0.2-1.4-0.6-1.8c-0.4-0.4-0.9-0.6-1.5-0.6s-1.1,0.2-1.5,0.6s-0.6,1-0.6,1.8s0.2,1.4,0.6,1.8
		c0.4,0.4,0.9,0.7,1.5,0.7S249.6,64.3,250,63.8z"/>
	<path class="st18" d="M271.5,63.2h-8.8c0.2,0.5,0.5,0.8,0.9,1.1c0.4,0.3,1,0.4,1.6,0.4s1-0.1,1.4-0.2s0.8-0.4,1.2-0.7l2.7,2.8
		c-1.2,1.4-3.1,2-5.5,2c-1.5,0-2.9-0.3-4-0.8s-2.1-1.4-2.7-2.4s-1-2.1-1-3.4s0.3-2.4,0.9-3.4s1.5-1.8,2.6-2.3
		c1.1-0.6,2.3-0.8,3.7-0.8c1.3,0,2.5,0.3,3.5,0.8c1.1,0.5,1.9,1.3,2.5,2.3s0.9,2.2,0.9,3.6C271.6,62.1,271.6,62.5,271.5,63.2z
		 M263.4,59.4c-0.4,0.3-0.6,0.7-0.7,1.3h4.1c-0.1-0.5-0.3-0.9-0.7-1.2c-0.4-0.3-0.8-0.5-1.3-0.5S263.6,59.1,263.4,59.4z"/>
	<path class="st18" d="M282.4,55.8v4.6c-0.4-0.1-0.8-0.1-1.2-0.1c-1.8,0-2.7,0.9-2.7,2.7v5.6h-5.2V56.1h5v1.4
		C279.1,56.4,280.5,55.8,282.4,55.8z"/>
	<path class="st18" d="M293.8,67.7c-1.1-0.6-2-1.3-2.7-2.3c-0.6-1-1-2.1-1-3.4s0.3-2.4,1-3.4c0.6-1,1.5-1.8,2.7-2.3
		c1.1-0.6,2.4-0.8,3.9-0.8s2.9,0.3,4,1s1.9,1.6,2.3,2.8l-4.1,2c-0.5-1.1-1.2-1.7-2.2-1.7c-0.6,0-1.1,0.2-1.5,0.6s-0.6,1-0.6,1.8
		s0.2,1.4,0.6,1.9c0.4,0.4,0.9,0.6,1.5,0.6c1,0,1.7-0.6,2.2-1.7l4.1,2c-0.4,1.2-1.2,2.1-2.3,2.8c-1.1,0.7-2.4,1-4,1
		C296.3,68.5,294.9,68.2,293.8,67.7z"/>
	<path class="st18" d="M307.9,67.8c-1.1-0.6-2-1.3-2.6-2.3s-1-2.1-1-3.4s0.3-2.4,1-3.4c0.6-1,1.5-1.8,2.6-2.3
		c1.1-0.6,2.4-0.8,3.8-0.8s2.7,0.3,3.8,0.8c1.1,0.6,2,1.3,2.6,2.3s0.9,2.1,0.9,3.4s-0.3,2.4-0.9,3.4s-1.5,1.8-2.6,2.3
		s-2.4,0.8-3.8,0.8C310.3,68.7,309,68.4,307.9,67.8z M313.1,63.9c0.4-0.4,0.6-1.1,0.6-1.8s-0.2-1.4-0.6-1.8s-0.9-0.6-1.5-0.6
		s-1.1,0.2-1.5,0.6s-0.6,1-0.6,1.8s0.2,1.4,0.6,1.8s0.9,0.7,1.5,0.7S312.8,64.4,313.1,63.9z"/>
	<path class="st18" d="M331.5,57.1c0.8,0.9,1.2,2.4,1.2,4.3v7.2h-4.5v-6.3c0-1.5-0.4-2.2-1.3-2.2c-0.5,0-0.9,0.2-1.2,0.6
		c-0.3,0.4-0.5,1.1-0.5,1.9v6h-4.6V56h4.3v1.3c0.4-0.5,0.9-0.9,1.5-1.1s1.2-0.4,1.8-0.4C329.6,55.7,330.8,56.2,331.5,57.1z"/>
	<path class="st18" d="M336.8,68.3c-1.1-0.2-1.9-0.5-2.6-0.9l1.4-3.5c0.6,0.4,1.3,0.6,2.1,0.8c0.8,0.2,1.6,0.3,2.3,0.3
		c0.6,0,1-0.1,1.3-0.2c0.2-0.1,0.4-0.3,0.4-0.5s-0.2-0.3-0.5-0.4s-0.8-0.2-1.5-0.2c-1-0.1-1.9-0.3-2.6-0.5s-1.4-0.6-1.9-1.1
		c-0.5-0.6-0.8-1.4-0.8-2.4c0-0.8,0.2-1.6,0.7-2.2c0.5-0.7,1.2-1.2,2.2-1.6s2.2-0.6,3.5-0.6c1,0,1.9,0.1,2.8,0.3s1.7,0.4,2.4,0.8
		l-1.4,3.5c-1.1-0.6-2.3-0.9-3.7-0.9c-1.1,0-1.7,0.2-1.7,0.6c0,0.2,0.2,0.3,0.5,0.4s0.8,0.2,1.5,0.2c1,0.1,1.9,0.3,2.6,0.5
		s1.4,0.6,1.9,1.1c0.5,0.6,0.8,1.4,0.8,2.4c0,0.8-0.2,1.5-0.7,2.2c-0.5,0.6-1.2,1.2-2.2,1.6s-2.2,0.6-3.6,0.6
		C338.9,68.7,337.9,68.6,336.8,68.3z"/>
	<path class="st18" d="M357.5,67.9c-0.8,0.4-1.9,0.7-3.2,0.7c-1.8,0-3.2-0.4-4.1-1.3c-1-0.9-1.4-2.1-1.4-3.9v-3.3h-1.7v-3.8h1.7
		v-3.6h5.2v3.6h2.6v3.8H354v3.2c0,0.4,0.1,0.7,0.3,0.9c0.2,0.2,0.5,0.3,0.8,0.3c0.4,0,0.8-0.1,1.2-0.3L357.5,67.9z"/>
	<path class="st18" d="M367.9,55.8v4.6c-0.4-0.1-0.8-0.1-1.2-0.1c-1.8,0-2.7,0.9-2.7,2.7v5.6h-5.2V56.1h5v1.4
		C364.8,56.4,366.1,55.8,367.9,55.8z"/>
	<path class="st18" d="M383.4,55.6v12.7h-5v-1.2c-0.5,0.5-1,0.8-1.6,1.1c-0.6,0.2-1.3,0.4-2,0.4c-1.6,0-2.9-0.5-3.9-1.5
		s-1.5-2.5-1.5-4.4v-7h5.2v6.1c0,0.9,0.1,1.5,0.4,1.9c0.3,0.4,0.7,0.6,1.2,0.6s0.9-0.2,1.3-0.6s0.5-1.1,0.5-1.9v-6h5.4V55.6z"/>
	<path class="st18" d="M387.9,67.7c-1.1-0.6-2-1.3-2.7-2.3c-0.6-1-1-2.1-1-3.4s0.3-2.4,1-3.4c0.6-1,1.5-1.8,2.7-2.3
		c1.1-0.6,2.4-0.8,3.9-0.8s2.9,0.3,4,1s1.9,1.6,2.3,2.8l-4.1,2c-0.5-1.1-1.2-1.7-2.2-1.7c-0.6,0-1.1,0.2-1.5,0.6s-0.6,1-0.6,1.8
		s0.2,1.4,0.6,1.9c0.4,0.4,0.9,0.6,1.5,0.6c1,0,1.7-0.6,2.2-1.7l4.1,2c-0.4,1.2-1.2,2.1-2.3,2.8c-1.1,0.7-2.4,1-4,1
		C390.4,68.5,389,68.2,387.9,67.7z"/>
	<path class="st18" d="M409.3,67.9c-0.8,0.4-1.9,0.7-3.2,0.7c-1.8,0-3.2-0.4-4.1-1.3c-1-0.9-1.4-2.1-1.4-3.9v-3.3h-1.7v-3.8h1.7
		v-3.6h5.2v3.6h2.6v3.8h-2.6v3.2c0,0.4,0.1,0.7,0.3,0.9c0.2,0.2,0.5,0.3,0.8,0.3c0.4,0,0.8-0.1,1.2-0.3L409.3,67.9z"/>
	<path class="st18" d="M411.2,54.1c-0.6-0.5-0.9-1.1-0.9-1.9s0.3-1.4,0.9-1.9s1.3-0.8,2.3-0.8s1.7,0.2,2.3,0.7
		c0.6,0.5,0.9,1.1,0.9,1.9s-0.3,1.5-0.9,2s-1.3,0.8-2.3,0.8C412.6,54.8,411.8,54.6,411.2,54.1z M411,55.9h5.2v12.7H411V55.9z"/>
	<path class="st18" d="M420.8,67.8c-1.1-0.6-2-1.3-2.6-2.3s-1-2.1-1-3.4s0.3-2.4,1-3.4c0.6-1,1.5-1.8,2.6-2.3
		c1.1-0.6,2.4-0.8,3.8-0.8s2.7,0.3,3.8,0.8c1.1,0.6,2,1.3,2.6,2.3s0.9,2.1,0.9,3.4s-0.3,2.4-0.9,3.4s-1.5,1.8-2.6,2.3
		s-2.4,0.8-3.8,0.8C423.1,68.7,421.9,68.4,420.8,67.8z M426,63.9c0.4-0.4,0.6-1.1,0.6-1.8s-0.2-1.4-0.6-1.8s-0.9-0.6-1.5-0.6
		s-1.1,0.2-1.5,0.6s-0.6,1-0.6,1.8s0.2,1.4,0.6,1.8s0.9,0.7,1.5,0.7S425.6,64.4,426,63.9z"/>
	<path class="st18" d="M446.1,57.1c1,0.9,1.4,2.4,1.4,4.3v7.2h-5.2v-6.3c0-1.5-0.5-2.2-1.6-2.2c-0.6,0-1.1,0.2-1.4,0.6
		c-0.4,0.4-0.5,1.1-0.5,1.9v6h-5.2V56h5v1.3c0.5-0.5,1.1-0.9,1.7-1.1s1.4-0.4,2.1-0.4C443.9,55.7,445.1,56.2,446.1,57.1z"/>
</g>
<g>
	<path class="st18" d="M186.1,290.5c-0.8,0.4-2.3,0.8-4.3,0.8c-4.6,0-8-2.9-8-8.2c0-5.1,3.4-8.5,8.4-8.5c2,0,3.3,0.4,3.8,0.7
		l-0.5,1.7c-0.8-0.4-1.9-0.7-3.3-0.7c-3.8,0-6.3,2.4-6.3,6.7c0,4,2.3,6.5,6.2,6.5c1.3,0,2.6-0.3,3.4-0.7L186.1,290.5z"/>
	<path class="st18" d="M198.9,285.1c0,4.3-3,6.2-5.8,6.2c-3.1,0-5.6-2.3-5.6-6c0-3.9,2.5-6.2,5.8-6.2S198.9,281.5,198.9,285.1z
		 M189.7,285.2c0,2.5,1.5,4.5,3.5,4.5s3.5-1.9,3.5-4.5c0-2-1-4.5-3.5-4.5S189.7,283,189.7,285.2z"/>
	<path class="st18" d="M201.6,282.5c0-1.2,0-2.2-0.1-3.1h1.8l0.1,1.9h0.1c0.6-1.1,1.7-2.1,3.6-2.1c1.6,0,2.8,1,3.3,2.3l0,0
		c0.4-0.6,0.8-1.2,1.3-1.5c0.7-0.5,1.5-0.8,2.6-0.8c1.5,0,3.8,1,3.8,5v6.8H216v-6.6c0-2.2-0.8-3.6-2.5-3.6c-1.2,0-2.1,0.9-2.5,1.9
		c-0.1,0.3-0.2,0.7-0.2,1.1v7.2h-2.1v-7c0-1.8-0.8-3.2-2.4-3.2c-1.3,0-2.3,1.1-2.6,2.1c-0.1,0.3-0.2,0.7-0.2,1v7h-2.1v-8.4
		L201.6,282.5L201.6,282.5z"/>
	<path class="st18" d="M221.6,282.5c0-1.2,0-2.2-0.1-3.1h1.8l0.1,1.9h0.1c0.6-1.1,1.7-2.1,3.6-2.1c1.6,0,2.8,1,3.3,2.3l0,0
		c0.4-0.6,0.8-1.2,1.3-1.5c0.7-0.5,1.5-0.8,2.6-0.8c1.5,0,3.8,1,3.8,5v6.8H236v-6.6c0-2.2-0.8-3.6-2.5-3.6c-1.2,0-2.1,0.9-2.5,1.9
		c-0.1,0.3-0.2,0.7-0.2,1.1v7.2h-2.1v-7c0-1.8-0.8-3.2-2.4-3.2c-1.3,0-2.3,1.1-2.6,2.1c-0.1,0.3-0.2,0.7-0.2,1v7h-2.1v-8.4
		L221.6,282.5L221.6,282.5z"/>
	<path class="st18" d="M243.9,276.1c0,0.7-0.5,1.3-1.3,1.3c-0.7,0-1.3-0.6-1.3-1.3c0-0.7,0.6-1.3,1.3-1.3
		C243.4,274.8,243.9,275.4,243.9,276.1z M241.6,291v-11.6h2.1V291H241.6z"/>
	<path class="st18" d="M247.2,282.5c0-1.2,0-2.2-0.1-3.1h1.9l0.1,1.9l0,0c0.6-1.1,1.9-2.2,3.8-2.2c1.6,0,4.1,1,4.1,4.9v6.9h-2.1
		v-6.7c0-1.9-0.7-3.4-2.7-3.4c-1.4,0-2.5,1-2.8,2.2c-0.1,0.3-0.1,0.6-0.1,1v7h-2.1L247.2,282.5L247.2,282.5z"/>
	<path class="st18" d="M270.5,279.4c0,0.8-0.1,1.8-0.1,3.2v6.7c0,2.7-0.5,4.3-1.7,5.3c-1.1,1.1-2.8,1.4-4.2,1.4
		c-1.4,0-2.9-0.3-3.9-1l0.5-1.6c0.8,0.5,2,0.9,3.4,0.9c2.2,0,3.7-1.1,3.7-4.1V289l0,0c-0.6,1.1-1.9,1.9-3.7,1.9
		c-2.9,0-4.9-2.4-4.9-5.7c0-3.9,2.6-6.2,5.2-6.2c2,0,3.1,1.1,3.6,2l0,0l0.1-1.8h2V279.4z M268.4,283.9c0-0.4,0-0.7-0.1-1
		c-0.4-1.2-1.4-2.2-3-2.2c-2,0-3.5,1.7-3.5,4.4c0,2.3,1.2,4.2,3.4,4.2c1.3,0,2.5-0.8,2.9-2.2c0.1-0.4,0.2-0.8,0.2-1.1v-2.1
		L268.4,283.9L268.4,283.9z"/>
	<path class="st18" d="M278.8,288.4c0.9,0.6,2.3,1.1,3.7,1.1c2.1,0,3.4-1.1,3.4-2.8c0-1.5-0.9-2.4-3-3.2c-2.6-0.9-4.3-2.3-4.3-4.6
		c0-2.5,2.1-4.4,5.2-4.4c1.7,0,2.9,0.4,3.6,0.8l-0.6,1.7c-0.5-0.3-1.6-0.8-3.1-0.8c-2.2,0-3,1.3-3,2.4c0,1.5,1,2.3,3.2,3.1
		c2.7,1.1,4.1,2.4,4.1,4.8c0,2.5-1.8,4.7-5.7,4.7c-1.6,0-3.3-0.5-4.1-1L278.8,288.4z"/>
	<path class="st18" d="M301.5,285.1c0,4.3-3,6.2-5.8,6.2c-3.1,0-5.6-2.3-5.6-6c0-3.9,2.5-6.2,5.8-6.2
		C299.3,279.1,301.5,281.5,301.5,285.1z M292.3,285.2c0,2.5,1.5,4.5,3.5,4.5s3.5-1.9,3.5-4.5c0-2-1-4.5-3.5-4.5
		C293.4,280.7,292.3,283,292.3,285.2z"/>
	<path class="st18" d="M314.7,285.1c0,4.3-3,6.2-5.8,6.2c-3.1,0-5.6-2.3-5.6-6c0-3.9,2.5-6.2,5.8-6.2S314.7,281.5,314.7,285.1z
		 M305.5,285.2c0,2.5,1.5,4.5,3.5,4.5s3.5-1.9,3.5-4.5c0-2-1-4.5-3.5-4.5C306.6,280.7,305.5,283,305.5,285.2z"/>
	<path class="st18" d="M317.4,282.5c0-1.2,0-2.2-0.1-3.1h1.9l0.1,1.9l0,0c0.6-1.1,1.9-2.2,3.8-2.2c1.6,0,4.1,1,4.1,4.9v6.9h-2.1
		v-6.7c0-1.9-0.7-3.4-2.7-3.4c-1.4,0-2.5,1-2.8,2.2c-0.1,0.3-0.1,0.6-0.1,1v7h-2.1L317.4,282.5L317.4,282.5z"/>
	<path class="st18" d="M330.2,289.7c0-0.9,0.6-1.5,1.4-1.5s1.4,0.6,1.4,1.5s-0.6,1.5-1.4,1.5S330.2,290.6,330.2,289.7z"/>
	<path class="st18" d="M335.1,289.7c0-0.9,0.6-1.5,1.4-1.5s1.4,0.6,1.4,1.5s-0.6,1.5-1.4,1.5S335.1,290.6,335.1,289.7z"/>
	<path class="st18" d="M340.1,289.7c0-0.9,0.6-1.5,1.4-1.5s1.4,0.6,1.4,1.5s-0.6,1.5-1.4,1.5S340.1,290.6,340.1,289.7z"/>
</g>
</svg>
