<svg width="411" height="257" viewBox="0 0 411 257" fill="none" xmlns="http://www.w3.org/2000/svg">
<g opacity="0.09">
<path opacity="0.5" d="M32.2 101.2H2.2C1 101.2 0 100.2 0 99V87.6C0 86.4 1 85.4 2.2 85.4H32.2C33.4 85.4 34.4 86.4 34.4 87.6V99C34.4 100.2 33.4 101.2 32.2 101.2Z" fill="#013632"/>
<path d="M72.1 32.8H42.1C40.9 32.8 39.9 31.8 39.9 30.6V19.3C39.9 18.1 40.9 17.1 42.1 17.1H72.1C73.3 17.1 74.3 18.1 74.3 19.3V30.6C74.2 31.8 73.3 32.8 72.1 32.8Z" fill="#013632"/>
<path opacity="0.5" d="M107.4 32.8H77.4C76.2 32.8 75.2 31.8 75.2 30.6V19.3C75.2 18.1 76.2 17.1 77.4 17.1H107.4C108.6 17.1 109.6 18.1 109.6 19.3V30.6C109.5 31.8 108.5 32.8 107.4 32.8Z" fill="#013632"/>
<path d="M142.9 32.8H112.9C111.7 32.8 110.7 31.8 110.7 30.6V19.3C110.7 18.1 111.7 17.1 112.9 17.1H142.9C144.1 17.1 145.1 18.1 145.1 19.3V30.6C145.1 31.8 144.1 32.8 142.9 32.8Z" fill="#013632"/>
<path d="M178.6 32.8H148.6C147.4 32.8 146.4 31.8 146.4 30.6V19.3C146.4 18.1 147.4 17.1 148.6 17.1H178.6C179.8 17.1 180.8 18.1 180.8 19.3V30.6C180.9 31.8 179.9 32.8 178.6 32.8Z" fill="#013632"/>
<path opacity="0.7" d="M158.9 15.7H128.9C127.7 15.7 126.7 14.7 126.7 13.5V2.2C126.7 1 127.7 0 128.9 0H158.9C160.1 0 161.1 1 161.1 2.2V13.6C160.9 14.7 160 15.7 158.9 15.7Z" fill="#013632"/>
<path opacity="0.5" d="M194.4 15.7H164.4C163.2 15.7 162.2 14.7 162.2 13.5V2.2C162.2 1 163.2 0 164.4 0H194.4C195.6 0 196.6 1 196.6 2.2V13.6C196.6 14.7 195.6 15.7 194.4 15.7Z" fill="#013632"/>
<path d="M87.9 49.9H57.9C56.7 49.9 55.7 48.9 55.7 47.7V36.3C55.7 35.1 56.7 34.1 57.9 34.1H87.9C89.1 34.1 90.1 35.1 90.1 36.3V47.7C90 48.9 89.1 49.9 87.9 49.9Z" fill="#013632"/>
<path opacity="0.5" d="M123.1 49.9H93.1C91.9 49.9 90.9 48.9 90.9 47.7V36.3C90.9 35.1 91.9 34.1 93.1 34.1H123.1C124.3 34.1 125.3 35.1 125.3 36.3V47.7C125.4 48.9 124.4 49.9 123.1 49.9Z" fill="#013632"/>
<path opacity="0.5" d="M158.9 49.9H128.9C127.7 49.9 126.7 48.9 126.7 47.7V36.3C126.7 35.1 127.7 34.1 128.9 34.1H158.9C160.1 34.1 161.1 35.1 161.1 36.3V47.7C160.9 48.9 160 49.9 158.9 49.9Z" fill="#013632"/>
<path opacity="0.7" d="M194.4 49.9H164.4C163.2 49.9 162.2 48.9 162.2 47.7V36.3C162.2 35.1 163.2 34.1 164.4 34.1H194.4C195.6 34.1 196.6 35.1 196.6 36.3V47.7C196.6 48.9 195.6 49.9 194.4 49.9Z" fill="#013632"/>
<path d="M214.5 32.8H184.5C183.3 32.8 182.3 31.8 182.3 30.6V19.3C182.3 18.1 183.3 17.1 184.5 17.1H214.5C215.7 17.1 216.7 18.1 216.7 19.3V30.6C216.6 31.8 215.6 32.8 214.5 32.8Z" fill="#013632"/>
<path opacity="0.5" d="M249.7 32.8H219.7C218.5 32.8 217.5 31.8 217.5 30.6V19.3C217.5 18.1 218.5 17.1 219.7 17.1H249.7C250.9 17.1 251.9 18.1 251.9 19.3V30.6C251.9 31.8 251 32.8 249.7 32.8Z" fill="#013632"/>
<path d="M285.4 32.8H255.4C254.2 32.8 253.2 31.8 253.2 30.6V19.3C253.2 18.1 254.2 17.1 255.4 17.1H285.4C286.6 17.1 287.6 18.1 287.6 19.3V30.6C287.5 31.8 286.5 32.8 285.4 32.8Z" fill="#013632"/>
<path opacity="0.5" d="M321 32.8H291C289.8 32.8 288.8 31.8 288.8 30.6V19.3C288.8 18.1 289.8 17.1 291 17.1H321C322.2 17.1 323.2 18.1 323.2 19.3V30.6C323.1 31.8 322.2 32.8 321 32.8Z" fill="#013632"/>
<path d="M230.2 15.7H200.2C199 15.7 198 14.7 198 13.5V2.2C198 1 199 0 200.2 0H230.2C231.4 0 232.4 1 232.4 2.2V13.6C232.5 14.7 231.5 15.7 230.2 15.7Z" fill="#013632"/>
<path d="M301.1 15.7H271.1C269.9 15.7 268.9 14.7 268.9 13.5V2.2C268.9 1 269.9 0 271.1 0H301.1C302.3 0 303.3 1 303.3 2.2V13.6C303.4 14.7 302.4 15.7 301.1 15.7Z" fill="#013632"/>
<path d="M230.2 49.9H200.2C199 49.9 198 48.9 198 47.7V36.3C198 35.1 199 34.1 200.2 34.1H230.2C231.4 34.1 232.4 35.1 232.4 36.3V47.7C232.5 48.9 231.5 49.9 230.2 49.9Z" fill="#013632"/>
<path opacity="0.5" d="M265.5 49.9H235.5C234.3 49.9 233.3 48.9 233.3 47.7V36.3C233.3 35.1 234.3 34.1 235.5 34.1H265.5C266.7 34.1 267.7 35.1 267.7 36.3V47.7C267.6 48.9 266.7 49.9 265.5 49.9Z" fill="#013632"/>
<path opacity="0.5" d="M301.1 49.9H271.1C269.9 49.9 268.9 48.9 268.9 47.7V36.3C268.9 35.1 269.9 34.1 271.1 34.1H301.1C302.3 34.1 303.3 35.1 303.3 36.3V47.7C303.4 48.9 302.4 49.9 301.1 49.9Z" fill="#013632"/>
<path d="M336.9 49.9H306.9C305.7 49.9 304.7 48.9 304.7 47.7V36.3C304.7 35.1 305.7 34.1 306.9 34.1H336.9C338.1 34.1 339.1 35.1 339.1 36.3V47.7C339 48.9 338 49.9 336.9 49.9Z" fill="#013632"/>
<path opacity="0.5" d="M88.9 84H58.9C57.7 84 56.7 83 56.7 81.8V70.4C56.7 69.2 57.7 68.2 58.9 68.2H88.9C90.1 68.2 91.1 69.2 91.1 70.4V81.8C91.1 83.1 90.1 84 88.9 84Z" fill="#013632"/>
<path opacity="0.5" d="M124.1 84H94.1C92.9 84 91.9 83 91.9 81.8V70.4C91.9 69.2 92.9 68.2 94.1 68.2H124.1C125.3 68.2 126.3 69.2 126.3 70.4V81.8C126.4 83.1 125.4 84 124.1 84Z" fill="#013632"/>
<path opacity="0.7" d="M159.9 84H129.9C128.7 84 127.7 83 127.7 81.8V70.4C127.7 69.2 128.7 68.2 129.9 68.2H159.9C161.1 68.2 162.1 69.2 162.1 70.4V81.8C162 83.1 161 84 159.9 84Z" fill="#013632"/>
<path opacity="0.5" d="M195.5 84H165.5C164.3 84 163.3 83 163.3 81.8V70.4C163.3 69.2 164.3 68.2 165.5 68.2H195.5C196.7 68.2 197.7 69.2 197.7 70.4V81.8C197.6 83.1 196.7 84 195.5 84Z" fill="#013632"/>
<path d="M104.7 67H74.7C73.5 67 72.5 66 72.5 64.8V53.4C72.5 52.2 73.5 51.2 74.7 51.2H104.7C105.9 51.2 106.9 52.2 106.9 53.4V64.8C106.9 66 105.9 67 104.7 67Z" fill="#013632"/>
<path opacity="0.5" d="M140 67H110C108.8 67 107.8 66 107.8 64.8V53.4C107.8 52.2 108.8 51.2 110 51.2H140C141.2 51.2 142.2 52.2 142.2 53.4V64.8C142.1 66 141.2 67 140 67Z" fill="#013632"/>
<path d="M175.6 67H145.6C144.4 67 143.4 66 143.4 64.8V53.4C143.4 52.2 144.4 51.2 145.6 51.2H175.6C176.8 51.2 177.8 52.2 177.8 53.4V64.8C177.9 66 176.9 67 175.6 67Z" fill="#013632"/>
<path opacity="0.5" d="M211.4 67H181.4C180.2 67 179.2 66 179.2 64.8V53.4C179.2 52.2 180.2 51.2 181.4 51.2H211.4C212.6 51.2 213.6 52.2 213.6 53.4V64.8C213.5 66 212.5 67 211.4 67Z" fill="#013632"/>
<path d="M104.7 101.1H74.7C73.5 101.1 72.5 100.1 72.5 98.9V87.6C72.5 86.4 73.5 85.4 74.7 85.4H104.7C105.9 85.4 106.9 86.4 106.9 87.6V99C106.9 100.1 105.9 101.1 104.7 101.1Z" fill="#013632"/>
<path opacity="0.7" d="M140 101.1H110C108.8 101.1 107.8 100.1 107.8 98.9V87.6C107.8 86.4 108.8 85.4 110 85.4H140C141.2 85.4 142.2 86.4 142.2 87.6V99C142.1 100.1 141.2 101.1 140 101.1Z" fill="#013632"/>
<path d="M175.6 101.1H145.6C144.4 101.1 143.4 100.1 143.4 98.9V87.6C143.4 86.4 144.4 85.4 145.6 85.4H175.6C176.8 85.4 177.8 86.4 177.8 87.6V99C177.9 100.1 176.9 101.1 175.6 101.1Z" fill="#013632"/>
<path opacity="0.7" d="M211.4 101.1H181.4C180.2 101.1 179.2 100.1 179.2 98.9V87.6C179.2 86.4 180.2 85.4 181.4 85.4H211.4C212.6 85.4 213.6 86.4 213.6 87.6V99C213.5 100.1 212.5 101.1 211.4 101.1Z" fill="#013632"/>
<path d="M231.4 84H201.4C200.2 84 199.2 83 199.2 81.8V70.4C199.2 69.2 200.2 68.2 201.4 68.2H231.4C232.6 68.2 233.6 69.2 233.6 70.4V81.8C233.5 83.1 232.5 84 231.4 84Z" fill="#013632"/>
<path opacity="0.7" d="M266.5 84H236.5C235.3 84 234.3 83 234.3 81.8V70.4C234.3 69.2 235.3 68.2 236.5 68.2H266.5C267.7 68.2 268.7 69.2 268.7 70.4V81.8C268.7 83.1 267.7 84 266.5 84Z" fill="#013632"/>
<path opacity="0.5" d="M302.2 84H272.2C271 84 270 83 270 81.8V70.4C270 69.2 271 68.2 272.2 68.2H302.2C303.4 68.2 304.4 69.2 304.4 70.4V81.8C304.4 83.1 303.5 84 302.2 84Z" fill="#013632"/>
<path opacity="0.5" d="M337.9 84H307.9C306.7 84 305.7 83 305.7 81.8V70.4C305.7 69.2 306.7 68.2 307.9 68.2H337.9C339.1 68.2 340.1 69.2 340.1 70.4V81.8C340 83.1 339 84 337.9 84Z" fill="#013632"/>
<path d="M247.1 67H217.1C215.9 67 214.9 66 214.9 64.8V53.4C214.9 52.2 215.9 51.2 217.1 51.2H247.1C248.3 51.2 249.3 52.2 249.3 53.4V64.8C249.4 66 248.4 67 247.1 67Z" fill="#013632"/>
<path opacity="0.5" d="M282.4 67H252.4C251.2 67 250.2 66 250.2 64.8V53.4C250.2 52.2 251.2 51.2 252.4 51.2H282.4C283.6 51.2 284.6 52.2 284.6 53.4V64.8C284.5 66 283.5 67 282.4 67Z" fill="#013632"/>
<path d="M318 67H288C286.8 67 285.8 66 285.8 64.8V53.4C285.8 52.2 286.8 51.2 288 51.2H318C319.2 51.2 320.2 52.2 320.2 53.4V64.8C320.2 66 319.2 67 318 67Z" fill="#013632"/>
<path opacity="0.7" d="M353.6 67H323.6C322.4 67 321.4 66 321.4 64.8V53.4C321.4 52.2 322.4 51.2 323.6 51.2H353.6C354.8 51.2 355.8 52.2 355.8 53.4V64.8C355.9 66 354.9 67 353.6 67Z" fill="#013632"/>
<path d="M247.1 101.1H217.1C215.9 101.1 214.9 100.1 214.9 98.9V87.6C214.9 86.4 215.9 85.4 217.1 85.4H247.1C248.3 85.4 249.3 86.4 249.3 87.6V99C249.4 100.1 248.4 101.1 247.1 101.1Z" fill="#013632"/>
<path opacity="0.5" d="M282.4 101.1H252.4C251.2 101.1 250.2 100.1 250.2 98.9V87.6C250.2 86.4 251.2 85.4 252.4 85.4H282.4C283.6 85.4 284.6 86.4 284.6 87.6V99C284.5 100.1 283.5 101.1 282.4 101.1Z" fill="#013632"/>
<path d="M318 101.1H288C286.8 101.1 285.8 100.1 285.8 98.9V87.6C285.8 86.4 286.8 85.4 288 85.4H318C319.2 85.4 320.2 86.4 320.2 87.6V99C320.2 100.1 319.2 101.1 318 101.1Z" fill="#013632"/>
<path opacity="0.5" d="M353.6 101.1H323.6C322.4 101.1 321.4 100.1 321.4 98.9V87.6C321.4 86.4 322.4 85.4 323.6 85.4H353.6C354.8 85.4 355.8 86.4 355.8 87.6V99C355.9 100.1 354.9 101.1 353.6 101.1Z" fill="#013632"/>
<path d="M70.2 135.9H40.2C39 135.9 38 134.9 38 133.7V122.3C38 121.1 39 120.1 40.2 120.1H70.2C71.4 120.1 72.4 121.1 72.4 122.3V133.7C72.4 135 71.4 135.9 70.2 135.9Z" fill="#013632"/>
<path opacity="0.5" d="M105.5 135.9H75.5C74.3 135.9 73.3 134.9 73.3 133.7V122.3C73.3 121.1 74.3 120.1 75.5 120.1H105.5C106.7 120.1 107.7 121.1 107.7 122.3V133.7C107.6 135 106.7 135.9 105.5 135.9Z" fill="#013632"/>
<path d="M141.1 135.9H111.1C109.9 135.9 108.9 134.9 108.9 133.7V122.3C108.9 121.1 109.9 120.1 111.1 120.1H141.1C142.3 120.1 143.3 121.1 143.3 122.3V133.7C143.4 135 142.4 135.9 141.1 135.9Z" fill="#013632"/>
<path d="M176.9 135.9H146.9C145.7 135.9 144.7 134.9 144.7 133.7V122.3C144.7 121.1 145.7 120.1 146.9 120.1H176.9C178.1 120.1 179.1 121.1 179.1 122.3V133.7C179 135 178 135.9 176.9 135.9Z" fill="#013632"/>
<path opacity="0.5" d="M86.1 118.9H56.1C54.9 118.9 53.9 117.9 53.9 116.7V105.3C53.9 104.1 54.9 103.1 56.1 103.1H86.1C87.3 103.1 88.3 104.1 88.3 105.3V116.7C88.2 117.9 87.4 118.9 86.1 118.9Z" fill="#013632"/>
<path opacity="0.5" d="M121.4 118.9H91.4C90.2 118.9 89.2 117.9 89.2 116.7V105.3C89.2 104.1 90.2 103.1 91.4 103.1H121.4C122.6 103.1 123.6 104.1 123.6 105.3V116.7C123.5 117.9 122.5 118.9 121.4 118.9Z" fill="#013632"/>
<path opacity="0.5" d="M68.8 66.3H38.8C37.6 66.3 36.6 65.3 36.6 64.1V52.7C36.6 51.5 37.6 50.5 38.8 50.5H68.8C70 50.5 71 51.5 71 52.7V64.1C71 65.4 70 66.3 68.8 66.3Z" fill="#013632"/>
<path opacity="0.5" d="M67.5 101.2H37.5C36.3 101.2 35.3 100.2 35.3 99V87.6C35.3 86.4 36.3 85.4 37.5 85.4H67.5C68.7 85.4 69.7 86.4 69.7 87.6V99C69.6 100.2 68.7 101.2 67.5 101.2Z" fill="#013632"/>
<path opacity="0.5" d="M156.9 118.9H126.9C125.7 118.9 124.7 117.9 124.7 116.7V105.3C124.7 104.1 125.7 103.1 126.9 103.1H156.9C158.1 103.1 159.1 104.1 159.1 105.3V116.7C159.1 117.9 158.1 118.9 156.9 118.9Z" fill="#013632"/>
<path opacity="0.5" d="M192.6 118.9H162.6C161.4 118.9 160.4 117.9 160.4 116.7V105.3C160.4 104.1 161.4 103.1 162.6 103.1H192.6C193.8 103.1 194.8 104.1 194.8 105.3V116.7C194.9 117.9 193.9 118.9 192.6 118.9Z" fill="#013632"/>
<path opacity="0.5" d="M86.1 153H56.1C54.9 153 53.9 152 53.9 150.8V139.4C53.9 138.2 54.9 137.2 56.1 137.2H86.1C87.3 137.2 88.3 138.2 88.3 139.4V150.8C88.2 152 87.4 153 86.1 153Z" fill="#013632"/>
<path opacity="0.7" d="M121.4 153H91.4C90.2 153 89.2 152 89.2 150.8V139.4C89.2 138.2 90.2 137.2 91.4 137.2H121.4C122.6 137.2 123.6 138.2 123.6 139.4V150.8C123.5 152 122.5 153 121.4 153Z" fill="#013632"/>
<path opacity="0.5" d="M156.9 153H126.9C125.7 153 124.7 152 124.7 150.8V139.4C124.7 138.2 125.7 137.2 126.9 137.2H156.9C158.1 137.2 159.1 138.2 159.1 139.4V150.8C159.1 152 158.1 153 156.9 153Z" fill="#013632"/>
<path opacity="0.5" d="M192.6 153H162.6C161.4 153 160.4 152 160.4 150.8V139.4C160.4 138.2 161.4 137.2 162.6 137.2H192.6C193.8 137.2 194.8 138.2 194.8 139.4V150.8C194.9 152 193.9 153 192.6 153Z" fill="#013632"/>
<path d="M212.6 135.9H182.6C181.4 135.9 180.4 134.9 180.4 133.7V122.3C180.4 121.1 181.4 120.1 182.6 120.1H212.6C213.8 120.1 214.8 121.1 214.8 122.3V133.7C214.9 135 213.9 135.9 212.6 135.9Z" fill="#013632"/>
<path opacity="0.5" d="M247.9 135.9H217.9C216.7 135.9 215.7 134.9 215.7 133.7V122.3C215.7 121.1 216.7 120.1 217.9 120.1H247.9C249.1 120.1 250.1 121.1 250.1 122.3V133.7C250 135 249 135.9 247.9 135.9Z" fill="#013632"/>
<path d="M283.5 135.9H253.5C252.3 135.9 251.3 134.9 251.3 133.7V122.3C251.3 121.1 252.3 120.1 253.5 120.1H283.5C284.7 120.1 285.7 121.1 285.7 122.3V133.7C285.7 135 284.7 135.9 283.5 135.9Z" fill="#013632"/>
<path opacity="0.5" d="M319.1 135.9H289.1C287.9 135.9 286.9 134.9 286.9 133.7V122.3C286.9 121.1 287.9 120.1 289.1 120.1H319.1C320.3 120.1 321.3 121.1 321.3 122.3V133.7C321.4 135 320.4 135.9 319.1 135.9Z" fill="#013632"/>
<path d="M228.5 118.9H198.5C197.3 118.9 196.3 117.9 196.3 116.7V105.3C196.3 104.1 197.3 103.1 198.5 103.1H228.5C229.7 103.1 230.7 104.1 230.7 105.3V116.7C230.6 117.9 229.6 118.9 228.5 118.9Z" fill="#013632"/>
<path opacity="0.7" d="M263.7 118.9H233.7C232.5 118.9 231.5 117.9 231.5 116.7V105.3C231.5 104.1 232.5 103.1 233.7 103.1H263.7C264.9 103.1 265.9 104.1 265.9 105.3V116.7C265.9 117.9 265 118.9 263.7 118.9Z" fill="#013632"/>
<path d="M299.4 118.9H269.4C268.2 118.9 267.2 117.9 267.2 116.7V105.3C267.2 104.1 268.2 103.1 269.4 103.1H299.4C300.6 103.1 301.6 104.1 301.6 105.3V116.7C301.5 117.9 300.5 118.9 299.4 118.9Z" fill="#013632"/>
<path opacity="0.5" d="M335 118.9H305C303.8 118.9 302.8 117.9 302.8 116.7V105.3C302.8 104.1 303.8 103.1 305 103.1H335C336.2 103.1 337.2 104.1 337.2 105.3V116.7C337.1 117.9 336.2 118.9 335 118.9Z" fill="#013632"/>
<path opacity="0.7" d="M371.1 118.9H341.1C339.9 118.9 338.9 117.9 338.9 116.7V105.3C338.9 104.1 339.9 103.1 341.1 103.1H371.1C372.3 103.1 373.3 104.1 373.3 105.3V116.7C373.4 117.9 372.4 118.9 371.1 118.9Z" fill="#013632"/>
<path d="M384.1 170.4H354.1C352.9 170.4 351.9 169.4 351.9 168.2V156.8C351.9 155.6 352.9 154.6 354.1 154.6H384.1C385.3 154.6 386.3 155.6 386.3 156.8V168.2C386.4 169.4 385.4 170.4 384.1 170.4Z" fill="#013632"/>
<path opacity="0.5" d="M367 187.8H337C335.8 187.8 334.8 186.8 334.8 185.6V174.2C334.8 173 335.8 172 337 172H367C368.2 172 369.2 173 369.2 174.2V185.6C369.2 186.9 368.2 187.8 367 187.8Z" fill="#013632"/>
<path opacity="0.5" d="M371.1 153H341.1C339.9 153 338.9 152 338.9 150.8V139.4C338.9 138.2 339.9 137.2 341.1 137.2H371.1C372.3 137.2 373.3 138.2 373.3 139.4V150.8C373.4 152 372.4 153 371.1 153Z" fill="#013632"/>
<path opacity="0.7" d="M356.6 32.8H326.6C325.4 32.8 324.4 31.8 324.4 30.6V19.3C324.4 18.1 325.4 17.1 326.6 17.1H356.6C357.8 17.1 358.8 18.1 358.8 19.3V30.6C358.9 31.8 357.9 32.8 356.6 32.8Z" fill="#013632"/>
<path d="M392.4 32.8H362.4C361.2 32.8 360.2 31.8 360.2 30.6V19.3C360.2 18.1 361.2 17.1 362.4 17.1H392.4C393.6 17.1 394.6 18.1 394.6 19.3V30.6C394.5 31.8 393.5 32.8 392.4 32.8Z" fill="#013632"/>
<path opacity="0.7" d="M373 49.7H343C341.8 49.7 340.8 48.7 340.8 47.5V36.2C340.8 35 341.8 34 343 34H373C374.2 34 375.2 35 375.2 36.2V47.6C375.1 48.8 374.1 49.7 373 49.7Z" fill="#013632"/>
<path d="M408.6 64.7H378.6C377.4 64.7 376.4 63.7 376.4 62.5V51.1C376.4 49.9 377.4 48.9 378.6 48.9H408.6C409.8 48.9 410.8 49.9 410.8 51.1V62.5C410.7 63.7 409.9 64.7 408.6 64.7Z" fill="#013632"/>
<path d="M49.4 170.4H19.4C18.2 170.4 17.2 169.4 17.2 168.2V156.8C17.2 155.6 18.2 154.6 19.4 154.6H49.4C50.6 154.6 51.6 155.6 51.6 156.8V168.2C51.6 169.4 50.6 170.4 49.4 170.4Z" fill="#013632"/>
<path opacity="0.7" d="M374.4 84H344.4C343.2 84 342.2 83 342.2 81.8V70.4C342.2 69.2 343.2 68.2 344.4 68.2H374.4C375.6 68.2 376.6 69.2 376.6 70.4V81.8C376.5 83.1 375.5 84 374.4 84Z" fill="#013632"/>
<path d="M228.5 153H198.5C197.3 153 196.3 152 196.3 150.8V139.4C196.3 138.2 197.3 137.2 198.5 137.2H228.5C229.7 137.2 230.7 138.2 230.7 139.4V150.8C230.6 152 229.6 153 228.5 153Z" fill="#013632"/>
<path opacity="0.5" d="M263.7 153H233.7C232.5 153 231.5 152 231.5 150.8V139.4C231.5 138.2 232.5 137.2 233.7 137.2H263.7C264.9 137.2 265.9 138.2 265.9 139.4V150.8C265.9 152 265 153 263.7 153Z" fill="#013632"/>
<path opacity="0.5" d="M299.4 153H269.4C268.2 153 267.2 152 267.2 150.8V139.4C267.2 138.2 268.2 137.2 269.4 137.2H299.4C300.6 137.2 301.6 138.2 301.6 139.4V150.8C301.5 152 300.5 153 299.4 153Z" fill="#013632"/>
<path d="M335 153H305C303.8 153 302.8 152 302.8 150.8V139.4C302.8 138.2 303.8 137.2 305 137.2H335C336.2 137.2 337.2 138.2 337.2 139.4V150.8C337.1 152 336.2 153 335 153Z" fill="#013632"/>
<path opacity="0.5" d="M82.4 187.8H52.4C51.2 187.8 50.2 186.8 50.2 185.6V174.2C50.2 173 51.2 172 52.4 172H82.4C83.6 172 84.6 173 84.6 174.2V185.6C84.6 186.9 83.6 187.8 82.4 187.8Z" fill="#013632"/>
<path opacity="0.5" d="M117.7 187.8H87.7C86.5 187.8 85.5 186.8 85.5 185.6V174.2C85.5 173 86.5 172 87.7 172H117.7C118.9 172 119.9 173 119.9 174.2V185.6C119.9 186.9 118.9 187.8 117.7 187.8Z" fill="#013632"/>
<path opacity="0.7" d="M153.4 187.8H123.4C122.2 187.8 121.2 186.8 121.2 185.6V174.2C121.2 173 122.2 172 123.4 172H153.4C154.6 172 155.6 173 155.6 174.2V185.6C155.5 186.9 154.5 187.8 153.4 187.8Z" fill="#013632"/>
<path opacity="0.5" d="M189 187.8H159C157.8 187.8 156.8 186.8 156.8 185.6V174.2C156.8 173 157.8 172 159 172H189C190.2 172 191.2 173 191.2 174.2V185.6C191.2 186.9 190.2 187.8 189 187.8Z" fill="#013632"/>
<path d="M98.4 170.8H68.4C67.2 170.8 66.2 169.8 66.2 168.6V157.2C66.2 156 67.2 155 68.4 155H98.4C99.6 155 100.6 156 100.6 157.2V168.6C100.4 169.8 99.5 170.8 98.4 170.8Z" fill="#013632"/>
<path opacity="0.7" d="M133.5 170.8H103.5C102.3 170.8 101.3 169.8 101.3 168.6V157.2C101.3 156 102.3 155 103.5 155H133.5C134.7 155 135.7 156 135.7 157.2V168.6C135.7 169.8 134.7 170.8 133.5 170.8Z" fill="#013632"/>
<path d="M169.1 170.8H139.1C137.9 170.8 136.9 169.8 136.9 168.6V157.2C136.9 156 137.9 155 139.1 155H169.1C170.3 155 171.3 156 171.3 157.2V168.6C171.4 169.8 170.4 170.8 169.1 170.8Z" fill="#013632"/>
<path opacity="0.5" d="M204.9 170.8H174.9C173.7 170.8 172.7 169.8 172.7 168.6V157.2C172.7 156 173.7 155 174.9 155H204.9C206.1 155 207.1 156 207.1 157.2V168.6C207 169.8 206 170.8 204.9 170.8Z" fill="#013632"/>
<path d="M98.4 204.9H68.4C67.2 204.9 66.2 203.9 66.2 202.7V191.3C66.2 190.1 67.2 189.1 68.4 189.1H98.4C99.6 189.1 100.6 190.1 100.6 191.3V202.7C100.4 203.9 99.5 204.9 98.4 204.9Z" fill="#013632"/>
<path opacity="0.5" d="M133.5 204.9H103.5C102.3 204.9 101.3 203.9 101.3 202.7V191.3C101.3 190.1 102.3 189.1 103.5 189.1H133.5C134.7 189.1 135.7 190.1 135.7 191.3V202.7C135.7 203.9 134.7 204.9 133.5 204.9Z" fill="#013632"/>
<path d="M169.1 204.9H139.1C137.9 204.9 136.9 203.9 136.9 202.7V191.3C136.9 190.1 137.9 189.1 139.1 189.1H169.1C170.3 189.1 171.3 190.1 171.3 191.3V202.7C171.4 203.9 170.4 204.9 169.1 204.9Z" fill="#013632"/>
<path opacity="0.5" d="M204.9 204.9H174.9C173.7 204.9 172.7 203.9 172.7 202.7V191.3C172.7 190.1 173.7 189.1 174.9 189.1H204.9C206.1 189.1 207.1 190.1 207.1 191.3V202.7C207 203.9 206 204.9 204.9 204.9Z" fill="#013632"/>
<path d="M224.9 187.8H194.9C193.7 187.8 192.7 186.8 192.7 185.6V174.2C192.7 173 193.7 172 194.9 172H224.9C226.1 172 227.1 173 227.1 174.2V185.6C227 186.9 226 187.8 224.9 187.8Z" fill="#013632"/>
<path opacity="0.7" d="M260 187.8H230C228.8 187.8 227.8 186.8 227.8 185.6V174.2C227.8 173 228.8 172 230 172H260C261.2 172 262.2 173 262.2 174.2V185.6C262.2 186.9 261.2 187.8 260 187.8Z" fill="#013632"/>
<path opacity="0.5" d="M295.7 187.8H265.7C264.5 187.8 263.5 186.8 263.5 185.6V174.2C263.5 173 264.5 172 265.7 172H295.7C296.9 172 297.9 173 297.9 174.2V185.6C298 186.9 297 187.8 295.7 187.8Z" fill="#013632"/>
<path opacity="0.5" d="M331.4 187.8H301.4C300.2 187.8 299.2 186.8 299.2 185.6V174.2C299.2 173 300.2 172 301.4 172H331.4C332.6 172 333.6 173 333.6 174.2V185.6C333.5 186.9 332.5 187.8 331.4 187.8Z" fill="#013632"/>
<path d="M240.6 170.8H210.6C209.4 170.8 208.4 169.8 208.4 168.6V157.2C208.4 156 209.4 155 210.6 155H240.6C241.8 155 242.8 156 242.8 157.2V168.6C242.9 169.8 241.9 170.8 240.6 170.8Z" fill="#013632"/>
<path opacity="0.5" d="M276 170.8H246C244.8 170.8 243.8 169.8 243.8 168.6V157.2C243.8 156 244.8 155 246 155H276C277.2 155 278.2 156 278.2 157.2V168.6C278 169.8 277.1 170.8 276 170.8Z" fill="#013632"/>
<path d="M311.5 170.8H281.5C280.3 170.8 279.3 169.8 279.3 168.6V157.2C279.3 156 280.3 155 281.5 155H311.5C312.7 155 313.7 156 313.7 157.2V168.6C313.7 169.8 312.7 170.8 311.5 170.8Z" fill="#013632"/>
<path opacity="0.5" d="M347.2 170.8H317.2C316 170.8 315 169.8 315 168.6V157.2C315 156 316 155 317.2 155H347.2C348.4 155 349.4 156 349.4 157.2V168.6C349.4 169.8 348.5 170.8 347.2 170.8Z" fill="#013632"/>
<path d="M240.6 204.9H210.6C209.4 204.9 208.4 203.9 208.4 202.7V191.3C208.4 190.1 209.4 189.1 210.6 189.1H240.6C241.8 189.1 242.8 190.1 242.8 191.3V202.7C242.9 203.9 241.9 204.9 240.6 204.9Z" fill="#013632"/>
<path opacity="0.5" d="M276 204.9H246C244.8 204.9 243.8 203.9 243.8 202.7V191.3C243.8 190.1 244.8 189.1 246 189.1H276C277.2 189.1 278.2 190.1 278.2 191.3V202.7C278 203.9 277.1 204.9 276 204.9Z" fill="#013632"/>
<path d="M311.5 204.9H281.5C280.3 204.9 279.3 203.9 279.3 202.7V191.3C279.3 190.1 280.3 189.1 281.5 189.1H311.5C312.7 189.1 313.7 190.1 313.7 191.3V202.7C313.7 203.9 312.7 204.9 311.5 204.9Z" fill="#013632"/>
<path opacity="0.7" d="M347.2 204.9H317.2C316 204.9 315 203.9 315 202.7V191.3C315 190.1 316 189.1 317.2 189.1H347.2C348.4 189.1 349.4 190.1 349.4 191.3V202.7C349.4 203.9 348.5 204.9 347.2 204.9Z" fill="#013632"/>
</g>
<path opacity="0.32" d="M304 59.8L322.2 56.5L336.9 202.7L322.2 205.5L304 59.8Z" fill="#33959F"/>
<path opacity="0.57" d="M203.5 213.9C300.426 213.9 379 210.721 379 206.8C379 202.879 300.426 199.7 203.5 199.7C106.574 199.7 28 202.879 28 206.8C28 210.721 106.574 213.9 203.5 213.9Z" fill="#33959F"/>
<path d="M322.2 205.5H83V58.4C83 53.3 87.2 49.1 92.3 49.1H312.8C317.9 49.1 322.1 53.3 322.1 58.4V205.5H322.2Z" fill="#D2F7F5"/>
<path d="M322.2 69.8H83V58.3C83 53.2 87.2 49 92.3 49H312.8C317.9 49 322.1 53.2 322.1 58.3V69.8H322.2Z" fill="#05D7CA"/>
<path d="M193.1 126.6H95V188.1H193.1V126.6Z" fill="#8FEAE5"/>
<path d="M251.5 114.1H202.4V148.9H251.5V114.1Z" fill="#8FEAE5"/>
<path d="M251.5 153.3H202.4V188.1H251.5V153.3Z" fill="#FFCFCB"/>
<path d="M307 185.8V188H304.7" stroke="#8FEAE5" stroke-width="0.5512" stroke-miterlimit="10"/>
<path d="M300.7 188H262.1" stroke="#8FEAE5" stroke-width="0.5512" stroke-miterlimit="10" stroke-dasharray="4.06 4.06"/>
<path d="M260 188H257.9V185.8" stroke="#8FEAE5" stroke-width="0.5512" stroke-miterlimit="10"/>
<path d="M257.9 181.2V118.7" stroke="#8FEAE5" stroke-width="0.5512" stroke-miterlimit="10" stroke-dasharray="4.64 4.64"/>
<path d="M257.9 116.3V114.1H260" stroke="#8FEAE5" stroke-width="0.5512" stroke-miterlimit="10"/>
<path d="M264.1 114.1H302.7" stroke="#8FEAE5" stroke-width="0.5512" stroke-miterlimit="10" stroke-dasharray="4.06 4.06"/>
<path d="M304.7 114.1H307V116.3" stroke="#8FEAE5" stroke-width="0.5512" stroke-miterlimit="10"/>
<path d="M307 121V183.5" stroke="#8FEAE5" stroke-width="0.5512" stroke-miterlimit="10" stroke-dasharray="4.64 4.64"/>
<path d="M146.3 132.3H102.4V138.8H146.3V132.3Z" fill="#8FEAE5"/>
<path d="M135.5 142.8H102.4V145.5H135.5V142.8Z" fill="#8FEAE5"/>
<path d="M102.4 152.7H184.7" stroke="#8FEAE5" stroke-width="0.5792" stroke-miterlimit="10"/>
<path d="M102.4 162.3H184.7" stroke="#8FEAE5" stroke-width="0.5792" stroke-miterlimit="10"/>
<path d="M102.4 171.9H184.7" stroke="#8FEAE5" stroke-width="0.5792" stroke-miterlimit="10"/>
<path d="M102.4 181.5H184.7" stroke="#8FEAE5" stroke-width="0.5792" stroke-miterlimit="10"/>
<path d="M193.1 85.1H95V120.3H193.1V85.1Z" stroke="#33959F" stroke-width="0.6069" stroke-miterlimit="10" stroke-dasharray="4.86 4.86"/>
<path d="M307.1 84.5H202.4V107H307.1V84.5Z" fill="#FFCFCB"/>
<path d="M105.5 59.7C105.5 61.5 104 63 102.2 63C100.4 63 98.9 61.5 98.9 59.7C98.9 57.9 100.4 56.4 102.2 56.4C104.1 56.4 105.5 57.9 105.5 59.7Z" fill="#D2F7F5"/>
<path d="M119.4 59.7C119.4 61.5 117.9 63 116.1 63C114.3 63 112.8 61.5 112.8 59.7C112.8 57.9 114.3 56.4 116.1 56.4C117.9 56.4 119.4 57.9 119.4 59.7Z" fill="#D2F7F5"/>
<path d="M133.1 59.7C133.1 61.5 131.6 63 129.8 63C128 63 126.5 61.5 126.5 59.7C126.5 57.9 128 56.4 129.8 56.4C131.6 56.4 133.1 57.9 133.1 59.7Z" fill="#D2F7F5"/>
<path opacity="0.1" d="M318.5 50.1C293.5 123.3 224.1 176 142.4 176H83V205.6H322.1V56.6C322.2 53.8 320.7 51.4 318.5 50.1Z" fill="#33959F"/>
<path opacity="0.57" d="M401 207.3C401 208.6 388.1 209.7 372.1 209.7C356.2 209.7 343.2 208.6 343.2 207.3C343.2 206 356.1 204.9 372.1 204.9C388 204.9 401 205.9 401 207.3Z" fill="#33959F"/>
<path opacity="0.57" d="M77.9 205.7C77.9 206.5 70.7 207.1 61.7 207.1C52.8 207.1 45.5 206.5 45.5 205.7C45.5 204.9 52.7 204.3 61.7 204.3C70.5 204.3 77.9 204.9 77.9 205.7Z" fill="#33959F"/>
<path opacity="0.53" d="M99.6 88.8L126 93.1L120.9 123.2L93.6 120.2L82.9 132.3L83 107L99.6 88.8Z" fill="#9EB9B8"/>
<path d="M330.2 73.1C330.2 73.1 327.3 69.6 326.9 67C326.5 64.4 324.8 55.7 323.5 55.7C322.2 55.7 322.1 59.4 322.2 62C322.3 64.6 320.9 67.6 322.2 68.9C323.4 70.2 325.7 76.5 325.7 76.5L330.2 73.1Z" fill="#F8985F"/>
<path d="M353.7 97L354.5 92.6C354.5 92.6 342.8 88.1 339.5 84.9C335.4 80.9 328.9 69.7 328.9 69.7L322.7 72.7C322.7 72.7 326.3 85 329.4 89.8C334.9 98.5 349.4 107.7 349.4 107.7L353.7 97Z" fill="#33959F"/>
<path d="M353.7 89.1C362.4 86.8 362.7 75.5 362.7 75.5L367.8 78.1L368.3 81.4C367.6 83.7 366.6 85.3 364.9 86.8C363.6 90.2 363.8 93.2 363.8 93.2C363.8 93.2 359.2 94.8 356.4 95.2L355.1 93.7C355.8 92.4 356.3 91 356.6 90C355.6 89.9 354.6 89.6 353.7 89.1Z" fill="#F8985F"/>
<path d="M383.4 194.5C383.4 194.5 387.4 199 387.3 200.8C387.1 202.6 379.4 206.5 377.7 207.1C375.9 207.6 372.7 208.1 373 206.9C373.3 205.6 376 204.2 377.8 202.5C379.6 200.7 380.6 195.4 380.6 195.4L383.4 194.5Z" fill="#0C1D25"/>
<path d="M356.6 198.5C356.6 198.5 357.7 203.6 356.6 206.2C355.5 208.8 343.9 208.3 342.8 207.3C341.7 206.3 342.4 205.1 346 204.1C349.6 203.1 353.5 199.8 353.5 198.5C353.5 197.1 356.6 198.5 356.6 198.5Z" fill="#0C1D25"/>
<path opacity="0.5" d="M356.5 198.4C356.1 200.4 355.3 203.6 353.4 204.5C351 205.6 345 205.4 342.4 206.1C342.2 206.5 342.4 206.9 342.8 207.3C343.9 208.3 355.6 208.8 356.6 206.2C357.7 203.6 356.6 198.5 356.6 198.5C356.6 198.5 356.5 198.5 356.5 198.4Z" fill="#0C1D25"/>
<path d="M348.1 128.2C348.1 128.2 346 137.9 346.6 148.1C347.2 158.3 348.8 171 348.8 171C348.8 171 349.9 184 350.9 188.7C351.9 193.4 352.3 200.2 352.3 200.2H357.2C357.2 200.2 360.8 186.5 360.8 181.7C360.8 177.4 360.4 174.5 358.4 170.1C357.6 168.3 357.3 166.3 357.7 164.4C357.8 163.8 358 163.2 358.3 162.6C359.5 160.1 362.3 150.5 362.3 150.5L364.6 136V129.8L348.1 128.2Z" fill="#FF877D"/>
<path opacity="0.3" d="M348.1 128.2C348.1 128.2 346 137.9 346.6 148.1C347.2 158.3 348.8 171 348.8 171C348.8 171 349.9 184 350.9 188.7C351.9 193.4 352.3 200.2 352.3 200.2H357.2C357.2 200.2 360.8 186.5 360.8 181.7C360.8 177.4 360.4 174.5 358.4 170.1C357.6 168.3 357.3 166.3 357.7 164.4C357.8 163.8 358 163.2 358.3 162.6C359.5 160.1 362.3 150.5 362.3 150.5L364.6 136V129.8L348.1 128.2Z" fill="#FF877D"/>
<path opacity="0.5" d="M382.4 194.8C383.1 196.5 384 199.1 383.4 200.2C380 206.6 375.9 206.2 373.8 207.7C374.8 207.8 376.5 207.5 377.6 207.2C379.4 206.7 387.1 202.7 387.2 200.9C387.4 199.1 383.3 194.6 383.3 194.6L382.4 194.8Z" fill="#0C1D25"/>
<path opacity="0.3" d="M358.1 162.6C358.6 161.6 359.4 159.2 360.2 156.9L357.7 141.7L353.4 137C353.4 137 356.4 147.2 355 159C354.6 162.3 354.2 167.6 356 170.4C357.8 173.1 359 177.4 358 181.9C357.1 185.7 356.8 194.1 357.2 200.2H357.3C357.3 200.2 360.9 186.5 360.9 181.7C360.9 177.4 360.5 174.5 358.5 170.1C357.7 168.3 357.4 166.3 357.8 164.4C357.7 163.7 358 163.1 358.1 162.6Z" fill="#FF877D"/>
<path d="M370.2 129.7C370.2 129.7 373.7 135.5 373.4 142.8C373.1 150.1 371.6 161.1 373.7 163.9C375.8 166.8 376.3 166.5 378.3 170.5C380.5 174.9 384.6 195.6 384.6 195.6C384.6 195.6 381.2 197.9 379.7 198C379.7 198 365.4 172.5 363.5 168.6C361.3 163.8 350.2 129.6 351 125C351.8 120.4 355 127.5 355 127.5L370.2 129.7Z" fill="#FF877D"/>
<path opacity="0.3" d="M384.5 195.5C384.1 193.6 380.4 174.9 378.2 170.5C376.2 166.5 375.8 166.8 373.6 163.9C371.5 161 373 150.1 373.3 142.8C373.4 139.8 372.9 137.1 372.3 134.9L370.3 133.3L366.9 135.8C366.9 135.8 369.6 143.9 369.6 151.6C369.6 159.3 368.5 161.7 372.1 166C375.7 170.3 378.7 176.1 379.8 181.3C380.7 184.8 382 192.1 384.5 195.5Z" fill="#FF877D"/>
<path opacity="0.29" d="M349.4 107.7L351.6 101.6C351.6 101.6 339.9 97 333.4 90.8C328.8 86.4 322.7 72.6 322.7 72.6C322.7 72.6 326.4 84.9 329.4 89.7C334.1 97.3 346.5 105.8 349.4 107.7Z" fill="#33959F"/>
<path d="M358.9 69.8C358.9 69.8 355.9 70.5 354.2 73.2C352.5 75.8 352.2 78.6 351.4 79.6C350.5 80.5 350 80.8 350 80.8C350 80.8 350 81.7 351.1 82.3C351.1 82.3 350.3 86.6 352.8 88.5C355.9 90.8 360 90.4 363.2 88.3C366.4 86.1 367.8 84.1 368.7 80.3C369.5 76.5 366 67.9 358.9 69.8Z" fill="#F8985F"/>
<path d="M364.1 92.6C364.1 92.6 367.1 92.6 369.6 94C370.7 94.6 371.3 95.7 371.4 96.9C372 103.2 374 126.6 374 133.8C374 133.8 357.8 139.2 345.6 132.7L348.5 107.6C348.7 104 352.6 92.7 354.4 92.6C354.5 92.6 357.1 96.4 364.1 92.6Z" fill="#33959F"/>
<path opacity="0.25" d="M351.1 134.8L362.6 135.8C369.1 135.4 374 133.8 374 133.8C374 128.6 372.9 114.7 372.1 105.2C370.9 102.8 364.6 95.2 365.1 103.8C366.4 122.3 351.1 134.7 351.1 134.8Z" fill="#33959F"/>
<path d="M335.001 112.501L331.269 131.947L388.329 142.899L392.061 123.453L335.001 112.501Z" fill="#8FEAE5"/>
<path d="M349.6 125.6C348.9 129.5 345.1 132 341.2 131.3C337.3 130.6 334.8 126.8 335.5 122.9C336.2 119 340 116.5 343.9 117.2C347.8 117.9 350.5 121.7 349.6 125.6Z" fill="#D2F7F5"/>
<path d="M354.978 120.635L354.564 122.796L383.634 128.375L384.048 126.215L354.978 120.635Z" fill="#8FEAE5"/>
<path d="M354.073 125.395L353.904 126.279L370.992 129.559L371.162 128.675L354.073 125.395Z" fill="#8FEAE5"/>
<path d="M353.524 128.093L353.355 128.977L382.425 134.557L382.595 133.673L353.524 128.093Z" fill="#8FEAE5"/>
<path d="M352.919 131.167L352.749 132.051L377.302 136.764L377.471 135.88L352.919 131.167Z" fill="#8FEAE5"/>
<path d="M345 121.5C344.8 122.5 343.9 123.1 342.9 122.9C341.9 122.7 341.3 121.8 341.5 120.8C341.7 119.8 342.6 119.2 343.6 119.4C344.6 119.6 345.1 120.6 345 121.5Z" fill="#33959F"/>
<path d="M338.4 126.2C338.8 124.1 340.8 122.8 342.9 123.2C345 123.6 346.3 125.6 345.9 127.7" fill="#33959F"/>
<path d="M369.7 123.4L373.3 123.2C373.3 123.2 369.9 132.7 362.6 138.2L357.7 137L362.2 130.1L369.7 123.4Z" fill="#8FEAE5"/>
<path d="M359.4 133.3L356.1 134.9C356.1 134.9 352 135.9 349.9 135.3C349.9 135.3 353.3 138.3 356.1 138.2C358.9 138.1 361.2 135.8 361.2 135.8L359.4 133.3Z" fill="#F8985F"/>
<path d="M366 95.2L366.4 92.8C366.4 92.8 371.9 93.1 374.1 100.3C376.3 107.5 377 117.2 374.9 120.7C372.8 124.2 366.8 134.6 359.9 137C359.9 137 356.4 135.2 356.8 134.3C361.8 125.1 362.6 121 367.7 117.2C367.7 117.2 363.8 103.4 364.9 98.4" fill="#33959F"/>
<path opacity="0.2" d="M372.4 99C373.6 102 375.3 109.4 375.1 113.4C374.9 117.4 374.2 120.2 371.9 122.6C369.7 124.9 365.6 133.3 362.2 134.9C360.5 135.7 361.2 135.8 359.5 136.7L360 137C366.8 134.5 372.9 124.2 375 120.7C377.1 117.2 376.4 107.5 374.2 100.3C372 92.8 366.5 92.8 366.5 92.8C365.5 94 371 96 372.4 99Z" fill="#33959F"/>
<path d="M361.5 71.9C361.5 71.9 354.9 71.1 348.9 72.9C348.9 72.9 349.2 73.8 352.5 73.7C354.1 73.6 349.4 74.7 349.4 74.7C349.4 74.7 351.7 77.9 360.7 77C369.7 76.1 361.5 71.9 361.5 71.9Z" fill="#0C1D25"/>
<path opacity="0.3" d="M353.7 89.1C362.4 86.8 362.7 75.5 362.7 75.5L367.8 78.1L368.3 81.4C367.6 83.7 366.6 85.3 364.9 86.8C363.6 90.2 363.8 93.2 363.8 93.2C363.8 93.2 359.2 94.8 356.4 95.2L355.1 93.7C355.8 92.4 356.3 91 356.6 90C355.6 89.9 354.6 89.6 353.7 89.1Z" fill="#F8985F"/>
<path d="M365 71.8C365 71.8 358.2 73.3 364.6 79.8C366.9 82.2 361.9 87.4 364.2 90.2C365.4 91.7 366.5 92 366.5 92C366.5 92 365.8 91 367.8 88C369.8 85.1 371.7 81.5 370.3 77.3C369 73 365 71.8 365 71.8Z" fill="#0C1D25"/>
<path d="M367 86C366.9 87.3 366.9 88.4 367.1 89.2C367.3 88.8 367.5 88.4 367.9 88C369.9 85.1 371.8 81.5 370.4 77.3V77.2L355.4 73.9C355.2 73.8 367.7 77.1 367 86Z" fill="#0C1D25"/>
<path d="M348.5 70.5C348.5 70.5 363.9 78.4 372.8 81.1C373.1 81.2 373.3 80.8 373.1 80.6L372.4 80C372.1 79.7 371.9 79.2 372 78.7C372.5 76.3 373.3 68.9 365 66.2C362.1 65.3 358 65.1 354.6 69.4C353.9 70.2 352.7 70.5 351.7 70.2C349.9 69.5 347.4 68.7 347 69.1C346.5 69.5 348.5 70.5 348.5 70.5Z" fill="#FFC937"/>
<path opacity="0.5" d="M362 75.3C367.2 75.8 369.3 72.1 370.1 69.2C373 72.5 372.5 76.9 372.1 78.6C372 79.1 372.2 79.5 372.5 79.9L373.2 80.5C373.4 80.7 373.2 81.1 372.9 81C368.3 79.7 362.1 76.9 357 74.6C358.1 74.8 359.7 75 362 75.3Z" fill="#FFC937"/>
<path d="M363 79.8C363 79.8 365.5 78.1 366.2 79.8C366.9 81.5 365.6 83.8 364.1 83.7" fill="#F8985F"/>
<path opacity="0.3" d="M363 79.8C363 79.8 365.5 78.1 366.2 79.8C366.9 81.5 365.6 83.8 364.1 83.7" fill="#F8985F"/>
<path d="M64.9413 76.9578L59.8786 105.92L116.719 115.856L121.782 86.8937L64.9413 76.9578Z" fill="#8FEAE5"/>
<path opacity="0.33" d="M65.6368 79.8947L61.4696 103.734L113.089 112.757L117.256 88.918L65.6368 79.8947Z" fill="#D2F7F5"/>
<path d="M68.0636 83.2108L67.5987 85.8706L93.6053 90.4167L94.0702 87.7569L68.0636 83.2108Z" fill="#8FEAE5"/>
<path d="M96.2611 88.1732L96.1406 88.8627L113.971 91.9795L114.091 91.29L96.2611 88.1732Z" fill="#8FEAE5"/>
<path d="M96.0543 90.097L95.9338 90.7865L106.376 92.6119L106.496 91.9223L96.0543 90.097Z" fill="#8FEAE5"/>
<path d="M66.911 89.2892L64.8274 101.209L76.7471 103.293L78.8307 91.3729L66.911 89.2892Z" fill="#D2F7F5"/>
<path d="M81.0774 91.7339L78.9938 103.654L90.9135 105.737L92.9971 93.8176L81.0774 91.7339Z" fill="#D2F7F5"/>
<path d="M95.2366 94.141L93.153 106.061L110.983 109.178L113.067 97.2578L95.2366 94.141Z" fill="#D2F7F5"/>
<path d="M67.8 92.2L76.4 93.7" stroke="#8FEAE5" stroke-width="0.4629" stroke-miterlimit="10"/>
<path d="M67.4 94.5L76 96" stroke="#8FEAE5" stroke-width="0.4629" stroke-miterlimit="10"/>
<path d="M67 96.7L75.6 98.3" stroke="#8FEAE5" stroke-width="0.4629" stroke-miterlimit="10"/>
<path d="M66.6 99L75.2 100.5" stroke="#8FEAE5" stroke-width="0.4629" stroke-miterlimit="10"/>
<path d="M82.2 94.7L90.9 96.2" stroke="#8FEAE5" stroke-width="0.4629" stroke-miterlimit="10"/>
<path d="M81.9 97L90.4 98.5" stroke="#8FEAE5" stroke-width="0.4629" stroke-miterlimit="10"/>
<path d="M81.4 99.3L90 100.8" stroke="#8FEAE5" stroke-width="0.4629" stroke-miterlimit="10"/>
<path d="M81 101.6L89.6 103.1" stroke="#8FEAE5" stroke-width="0.4629" stroke-miterlimit="10"/>
<path d="M96.9 97.2L110.2 99.6" stroke="#8FEAE5" stroke-width="0.5757" stroke-miterlimit="10"/>
<path d="M96.4 99.5L109.9 101.9" stroke="#8FEAE5" stroke-width="0.5757" stroke-miterlimit="10"/>
<path d="M96 101.8L109.4 104.2" stroke="#8FEAE5" stroke-width="0.5757" stroke-miterlimit="10"/>
<path d="M95.6 104.1L109 106.5" stroke="#8FEAE5" stroke-width="0.5757" stroke-miterlimit="10"/>
<path d="M93.2 81L91.1 85.4H86.4C86.4 85.4 70.2 94.8 67.1 105.9C64 117 64.5 97.5 64.5 97.5L70.8 86.5L93.2 81Z" fill="#8FEAE5"/>
<path d="M59.6 86.8L58.8 79.5C58.8 79.5 58 89 54.4 91.2C50.8 93.4 44.8 93.4 45.3 100.2C45.3 100.2 44.9 101.9 48.2 104.4C51.5 106.9 49.7 110.4 46.5 115.4C40.9 124.1 47.9 132.4 57.3 129.1C66.8 125.9 64.4 107 64.4 107L59.6 86.8Z" fill="#0C1D25"/>
<path d="M67.2 94.1C67.2 94.1 66.1 97.2 66.6 99.9C67 102.6 59.6 95.1 59.6 95.1C59.6 95.1 61.2 92.5 61.4 89C61.6 85.5 67.2 94.1 67.2 94.1Z" fill="#F8985F"/>
<path d="M88.4 115.1C88.4 115.1 90.7 114.5 91.5 113.6C92.2 112.7 95.8 109.9 97.7 110C99.1 110.1 95.9 111.6 97.1 111.9C99.4 112.5 100.2 111.6 104.1 113.1C106.9 114.2 105.2 114.4 103.4 114.1C101.6 113.8 94.1 117.4 89.4 117.2" fill="#F8985F"/>
<path d="M83.4 80.4L87.4 78.7C87.4 78.7 90.1 78.5 92.8 79.5C95.4 80.5 97.2 82.4 97.2 82.4C97.2 82.4 91.6 81.8 90.4 83C89.9 83.5 90.3 84.3 91.4 85.4C92.6 86.5 87.5 83.3 85.7 83.5C83.6 83.6 83.4 80.4 83.4 80.4Z" fill="#F8985F"/>
<path d="M69.6 88.2L72.4 81.6C72.4 81.6 80.5 79.6 84.5 79.5L86.6 83.5L72.7 89.8L69.6 88.2Z" fill="#FF877D"/>
<path opacity="0.2" d="M69.6 88.2L72.4 81.6C72.4 81.6 80.5 79.6 84.5 79.5L86.6 83.5L72.7 89.8L69.6 88.2Z" fill="#FF877D"/>
<path d="M58.6 97.2C58.6 97.2 53.8 97.2 52.6 100.2C51.4 103.2 52.2 105.2 53.9 107.7C55.6 110.2 54.8 115.2 51 117.4C44 121.5 47.8 131.8 57.2 129.1C66.7 126.5 62 110.9 62 110.9L58.6 97.2Z" fill="#FFC937"/>
<path d="M55.8 198.6C55.8 198.6 54.8 199.9 55.2 205.3C55.3 206.4 68.7 207.4 68.7 206.7C68.7 204.2 61.4 203.1 60.1 199.7C59.7 198.7 57.6 198.7 57.6 198.7L55.8 198.6Z" fill="#0C1D25"/>
<path opacity="0.53" d="M55.8 198.6C55.8 198.6 54.8 199.9 55.2 205.3C55.3 206.4 68.7 207.4 68.7 206.7C68.7 204.2 61.4 203.1 60.1 199.7C59.7 198.7 57.6 198.7 57.6 198.7L55.8 198.6Z" fill="#0C1D25"/>
<path d="M57.9 132.3C57.9 132.3 54.6 130.9 55.6 144C56.3 153.2 59.4 165.4 58.2 167.8C57 170.1 53.9 173.2 54.2 181.8C54.5 190.4 54.6 200.4 54.6 200.4L61.1 201.3C61.1 201.3 65.6 173.5 67 168.9C69.7 159.8 69.7 144.5 69.7 144.5L57.9 132.3Z" fill="#007B87"/>
<path opacity="0.15" d="M60.9 138.1L55.4 139.6C55.4 140.9 55.5 142.4 55.6 144.1C56.3 153.3 59.4 165.5 58.2 167.9C57 170.2 53.9 173.3 54.2 181.9C54.5 190.5 54.6 200.5 54.6 200.5L55.4 200.6C55.9 198.5 56.5 194.8 56.2 188.6C55.8 177.4 57.9 173 60.2 169.6C62.5 166.2 60.9 159.3 59.9 154.4C58.3 146.6 62.6 138.5 62.6 138.5L60.9 138.1Z" fill="#007B87"/>
<path d="M60.6 145.7L56.4 144L67.1 168.9L69.3 158L60.6 145.7Z" fill="#007B87"/>
<path d="M64 195.3L61.2 196.8C61.2 196.8 59.1 199.6 60.7 201.3C62.3 203 67.3 205 68.8 205.8C70.3 206.6 74 207.3 74.3 206.2C74.6 205.1 69.7 201.8 69.7 201.8L66.3 198.7L67.2 197.4L64 195.3Z" fill="#0C1D25"/>
<path opacity="0.28" d="M69.8 206.1C67.5 204.8 65.6 203.3 63.9 201.3C62.3 199.4 62.7 197.1 63.2 195.7L61.2 196.8C61.2 196.8 59.1 199.6 60.7 201.3C62.3 203 67.3 205 68.8 205.8C69.1 205.9 69.4 206 69.8 206.1Z" fill="#0C1D25"/>
<path d="M71 132.4C71 132.4 81 153.1 82.4 161.6C83.3 166.9 66.3 198.6 66.3 198.6L61.7 196.3C61.7 196.3 62.9 173.7 68.8 167.8C70.5 166.1 69.6 163.6 68.1 161.8C60.2 152.2 54.4 143.9 54.8 137.8C55.6 125.3 71 132.4 71 132.4Z" fill="#33959F"/>
<path opacity="0.15" d="M60.1 143C57.1 139 57.2 134.1 57.7 131.2C56.1 132.4 55 134.4 54.7 137.8C54.3 143.8 60.1 152.2 68 161.8C69.5 163.7 70.4 166.1 68.7 167.8C62.8 173.7 61.6 196.3 61.6 196.3L62.6 196.6C63.2 192.2 65.4 183.4 66.1 179.8C67.8 171 71.3 170.1 71.8 164.2C72.3 158.2 64.7 149.1 60.1 143Z" fill="#007B87"/>
<path d="M73.4 78C73.4 78 75.6 79.8 75.8 82.7C76.1 85.6 75.1 88 75.5 89.1C75.8 90.2 76.2 90.7 76.2 90.7C76.2 90.7 75.8 91.5 74.6 91.5C74.6 91.5 73.5 95.4 70.6 95.8C67.1 96.4 63.9 94.4 62.2 91.3C60.5 88.2 60.2 85.9 61 82.5C61.9 79 68.4 73.4 73.4 78Z" fill="#F8985F"/>
<path opacity="0.3" d="M69.6 95.9C63.4 90.4 67.9 81 67.9 81H62.6L60.8 83.5C60.4 85.7 60.6 87.4 61.3 89.4C61 92.7 59.5 95.1 59.5 95.1C59.5 95.1 62.6 98.3 64.7 99.8L66.4 99.1C66.3 97.8 66.5 96.4 66.8 95.4C67.7 95.8 68.6 95.9 69.6 95.9Z" fill="#F8985F"/>
<path d="M59.8 94.4C59.8 94.4 57 96.4 56 100C54.7 104.4 54.7 109.2 55.7 116.2C56.7 123.2 54.7 135.2 54.7 135.2C54.7 135.2 66.6 140 73.9 137.1C73.9 137.1 72.8 127.4 73.4 123.9C74 120.4 70.5 106.4 68.2 102.5C66.7 99.9 66.4 98.9 66.4 98.9C66.4 98.9 64.7 99 59.8 94.4Z" fill="#FF877D"/>
<path opacity="0.44" d="M67.2 111.7H61C61 111.7 64.2 124.6 73.8 131.5C73.8 131.5 73.1 127.1 73.5 124C73.9 120.7 67.2 111.7 67.2 111.7Z" fill="#FF877D"/>
<path d="M79.6 81C80.6 84.4 76.7 84.2 72.3 83.2C69.9 82.6 66 83.6 64.6 86.5C63 89.7 67.9 97.1 56.7 97.1C55.5 97.1 56.1 85.9 59.5 82C66.2 74.4 78.6 77.6 79.6 81Z" fill="#0C1D25"/>
<path d="M66.7 85.3C66.7 85.3 66.2 82.9 64.6 83C62.9 83.2 61.9 88 64.7 88" fill="#F8985F"/>
<path d="M60 109.4C61.3 113.2 66 121.9 70 124.1C74 126.2 76.8 125.8 80.9 124.1C85 122.4 92 118 92 118L89.7 113.4C89.7 113.4 85.2 114.8 83.8 115C82.5 115.2 77.4 115.8 75.8 117C75.8 117 69.6 102.6 66.9 100.2C63.6 97 58 103.2 60 109.4Z" fill="#FF877D"/>
<path opacity="0.2" d="M92.1 117.9C84.6 121.6 77.8 123.4 73.1 122.8C68.4 122.2 63.1 111.7 61.8 109.2C61.2 108 60.5 105.9 60 103.9C59.5 105.5 59.4 107.4 60 109.3C61.3 113.1 66 121.8 70 124C74 126.1 76.8 125.7 80.9 124C85.1 122.3 92.1 117.9 92.1 117.9Z" fill="#FF877D"/>
<path opacity="0.3" d="M66.7 85.3C66.7 85.3 66.2 82.9 64.6 83C62.9 83.2 61.9 88 64.7 88" fill="#F8985F"/>
<path d="M77.2 80.4L57.6 85.6L58.2 82L77.2 80.4Z" fill="#FFC937"/>
<path d="M80.9 79.5C80.9 79.5 65.5 83.5 57 84C56.7 84 56.6 83.6 56.8 83.5L57.5 83.1C57.9 82.9 58.1 82.5 58.1 82C58.2 79.8 59 72.9 66.9 72.2C69.7 71.9 73.4 72.7 75.6 77.2C76 78.1 77 78.6 78 78.5C79.8 78.3 82.2 78 82.4 78.4C82.9 79 80.9 79.5 80.9 79.5Z" fill="#FFC937"/>
<path opacity="0.5" d="M67.9 81C63.1 80.4 62.1 76.7 61.9 73.9C58.6 76.3 58.2 80.3 58.2 81.9C58.2 82.3 58 82.7 57.6 83L56.9 83.4C56.6 83.5 56.8 83.9 57.1 83.9C61.5 83.6 67.6 82.5 72.6 81.4C71.4 81.4 69.9 81.3 67.9 81Z" fill="#FFC937"/>
<path opacity="0.53" d="M295.9 76.5C295.2 76.5 294.7 76.9 294.6 77.6L293.4 93.7C293.3 93.7 293.2 93.7 293.1 93.7L270.3 92.8L271.4 80.5C271.4 79.8 271 79.3 270.3 79.2C269.6 79.2 269.1 76.8 269 77.4L267.8 93.8C267.6 94 267.5 94.3 267.6 94.6C267.6 94.8 267.7 94.9 267.7 95L266.6 109.3C266.5 109.5 266.4 109.8 266.4 110C266.4 110.1 266.4 110.2 266.5 110.3L265.4 124.9C265.3 125.1 265.3 125.3 265.3 125.5C265.3 125.6 265.3 125.6 265.3 125.7L264.2 140.5C264.2 140.6 264.1 140.8 264.2 141L259.6 203.2L242.7 219C242.7 219.7 243.1 220.2 243.8 220.3C243.9 220.3 243.9 220.3 244 220.3C244.6 220.2 245 219.8 245 219.2L261.4 205.4L283 205.3L268.3 219.1C268.3 219.8 268.7 220.3 269.4 220.4C269.5 220.4 269.5 220.4 269.6 220.4C270.2 220.3 270.6 219.9 270.6 219.3L287.3 204.1C287.8 203.9 288.1 203.4 288.1 202.9C288.1 202.5 287.8 202.2 287.5 202L288.5 188.5C288.8 188.3 289 187.9 289 187.4C289 187.1 288.8 186.9 288.6 186.7L289.6 172.7C289.7 172.5 289.8 172.2 289.8 171.9C289.8 171.8 289.7 171.6 289.7 171.5L296.6 77.5C297 77.1 296.5 76.5 295.9 76.5ZM293.1 96L292.1 109.1L269 108.7L270 95.1L293.1 96ZM291 124.6L267.9 124.2L268.9 111.1L292 111.5L291 124.6ZM290 140.1L266.9 139.7L267.9 126.6L291 127L290 140.1ZM288.9 155.6L265.8 155.2L266.8 142.1L289.9 142.5L288.9 155.6ZM287.6 171.1L264.5 170.7L265.5 157.6L288.6 158L287.6 171.1ZM286.5 186.7L263.4 186.3L264.4 173.2L287.5 173.6L286.5 186.7ZM262.4 201.8L263.4 188.7L286.5 189.1L285.5 202.2L262.4 201.8Z" fill="#9EB9B8"/>
<path d="M244 219.6C243.9 219.6 243.9 219.6 243.8 219.6C243.2 219.5 242.7 218.9 242.9 218.2L268.5 78.5C268.6 77.9 269.2 77.4 269.9 77.6C270.5 77.7 271 78.3 270.8 79L245.2 218.6C245.1 219.2 244.6 219.6 244 219.6Z" fill="#0C1D25"/>
<path d="M269.6 219.6C269.5 219.6 269.5 219.6 269.4 219.6C268.8 219.5 268.3 218.9 268.5 218.2L294.1 78.5C294.2 77.9 294.8 77.4 295.5 77.6C296.1 77.7 296.6 78.3 296.4 79L270.9 218.6C270.7 219.2 270.2 219.6 269.6 219.6Z" fill="#0C1D25"/>
<path d="M291 95.5H266.5" stroke="#0C1D25" stroke-width="2.9636" stroke-miterlimit="10" stroke-linecap="round"/>
<path d="M288.5 110.8H263.6" stroke="#0C1D25" stroke-width="2.9636" stroke-miterlimit="10" stroke-linecap="round"/>
<path d="M285.9 126.1H261" stroke="#0C1D25" stroke-width="2.9636" stroke-miterlimit="10" stroke-linecap="round"/>
<path d="M283.4 141.4H258.1" stroke="#0C1D25" stroke-width="2.9636" stroke-miterlimit="10" stroke-linecap="round"/>
<path d="M280.9 156.7H255.5" stroke="#0C1D25" stroke-width="2.9636" stroke-miterlimit="10" stroke-linecap="round"/>
<path d="M278.4 172H252.6" stroke="#0C1D25" stroke-width="2.9636" stroke-miterlimit="10" stroke-linecap="round"/>
<path d="M275.9 187.3H250" stroke="#0C1D25" stroke-width="2.9636" stroke-miterlimit="10" stroke-linecap="round"/>
<path d="M273.4 202.5H259.2H247.1" stroke="#0C1D25" stroke-width="2.9636" stroke-miterlimit="10" stroke-linecap="round"/>
<path d="M43.8 12.9L38.6 29.2H32.8L30.2 20.5L27.4 29.2H21.5L16.3 12.9H21.9L24.8 22.1L27.8 12.9H32.8L35.6 22.3L38.6 12.9H43.8Z" fill="#33959F"/>
<path d="M57.4 23.8H48.6C48.8 24.3 49.1 24.6 49.5 24.9C49.9 25.2 50.5 25.3 51.1 25.3C51.7 25.3 52.1 25.2 52.5 25.1C52.9 25 53.3 24.7 53.7 24.4L56.4 27.2C55.2 28.6 53.3 29.2 50.9 29.2C49.4 29.2 48 28.9 46.9 28.4C45.7 27.8 44.8 27 44.2 26C43.6 25 43.2 23.9 43.2 22.6C43.2 21.3 43.5 20.2 44.1 19.2C44.7 18.2 45.6 17.4 46.7 16.9C47.8 16.3 49 16.1 50.4 16.1C51.7 16.1 52.9 16.4 53.9 16.9C55 17.4 55.8 18.2 56.4 19.2C57 20.2 57.3 21.4 57.3 22.8C57.4 22.7 57.4 23.1 57.4 23.8ZM49.2 20C48.8 20.3 48.6 20.7 48.5 21.3H52.6C52.5 20.8 52.3 20.4 51.9 20.1C51.5 19.8 51.1 19.6 50.6 19.6C49.9 19.6 49.4 19.7 49.2 20Z" fill="#33959F"/>
<path d="M70.7 16.8C71.6 17.3 72.4 18.1 72.9 19.1C73.4 20.1 73.7 21.3 73.7 22.6C73.7 23.9 73.4 25.1 72.9 26.1C72.4 27.1 71.6 27.9 70.7 28.4C69.8 28.9 68.7 29.2 67.6 29.2C66 29.2 64.9 28.8 64.1 27.9V28.9H59.1V11.7H64.3V17.1C65 16.4 66.1 16 67.5 16C68.7 16 69.7 16.3 70.7 16.8ZM67.8 24.4C68.2 24 68.4 23.3 68.4 22.6C68.4 21.9 68.2 21.2 67.8 20.8C67.4 20.4 66.9 20.2 66.3 20.2C65.7 20.2 65.2 20.4 64.8 20.8C64.4 21.2 64.2 21.8 64.2 22.6C64.2 23.4 64.4 24 64.8 24.4C65.2 24.8 65.7 25.1 66.3 25.1C66.9 25.1 67.4 24.9 67.8 24.4Z" fill="#33959F"/>
<path d="M77 28.9C75.9 28.7 75.1 28.4 74.4 28L75.8 24.5C76.4 24.9 77.1 25.1 77.9 25.3C78.7 25.5 79.5 25.6 80.2 25.6C80.8 25.6 81.2 25.5 81.5 25.4C81.7 25.3 81.9 25.1 81.9 24.9C81.9 24.7 81.7 24.6 81.4 24.5C81.1 24.4 80.6 24.3 79.9 24.3C78.9 24.2 78 24 77.3 23.8C76.6 23.6 75.9 23.2 75.4 22.7C74.9 22.1 74.6 21.3 74.6 20.3C74.6 19.5 74.8 18.7 75.3 18.1C75.8 17.4 76.5 16.9 77.5 16.5C78.5 16.1 79.7 15.9 81 15.9C82 15.9 82.9 16 83.8 16.2C84.7 16.4 85.5 16.6 86.2 17L84.8 20.5C83.7 19.9 82.5 19.6 81.1 19.6C80 19.6 79.4 19.8 79.4 20.2C79.4 20.4 79.6 20.5 79.9 20.6C80.2 20.7 80.7 20.8 81.4 20.8C82.4 20.9 83.3 21.1 84 21.3C84.7 21.5 85.4 21.9 85.9 22.4C86.4 23 86.7 23.8 86.7 24.8C86.7 25.6 86.5 26.3 86 27C85.5 27.6 84.8 28.2 83.8 28.6C82.8 29 81.6 29.2 80.2 29.2C79.1 29.3 78.1 29.2 77 28.9Z" fill="#33959F"/>
<path d="M88.7 14.7C88.1 14.2 87.8 13.6 87.8 12.8C87.8 12 88.1 11.4 88.7 10.9C89.3 10.4 90 10.1 91 10.1C92 10.1 92.7 10.3 93.3 10.8C93.9 11.3 94.2 11.9 94.2 12.7C94.2 13.5 93.9 14.2 93.3 14.7C92.7 15.2 92 15.5 91 15.5C90.1 15.4 89.4 15.2 88.7 14.7ZM88.4 16.5H93.6V29.2H88.4V16.5Z" fill="#33959F"/>
<path d="M105.4 28.5C104.6 28.9 103.5 29.2 102.2 29.2C100.4 29.2 99.1 28.8 98.1 27.9C97.1 27 96.7 25.8 96.7 24V20.7H95V16.9H96.7V13.3H101.9V16.9H104.5V20.7H101.9V23.9C101.9 24.3 102 24.6 102.2 24.8C102.4 25 102.7 25.1 103 25.1C103.4 25.1 103.8 25 104.2 24.8L105.4 28.5Z" fill="#33959F"/>
<path d="M119.7 23.8H110.9C111.1 24.3 111.4 24.6 111.8 24.9C112.2 25.2 112.8 25.3 113.4 25.3C114 25.3 114.4 25.2 114.8 25.1C115.2 25 115.6 24.7 116 24.4L118.7 27.2C117.5 28.6 115.6 29.2 113.2 29.2C111.7 29.2 110.3 28.9 109.2 28.4C108 27.8 107.1 27 106.5 26C105.9 25 105.5 23.9 105.5 22.6C105.5 21.3 105.8 20.2 106.4 19.2C107 18.2 107.9 17.4 109 16.9C110.1 16.3 111.3 16.1 112.7 16.1C114 16.1 115.2 16.4 116.2 16.9C117.3 17.4 118.1 18.2 118.7 19.2C119.3 20.2 119.6 21.4 119.6 22.8C119.9 22.7 119.9 23.1 119.7 23.8ZM111.5 20C111.1 20.3 110.9 20.7 110.8 21.3H114.9C114.8 20.8 114.6 20.4 114.2 20.1C113.8 19.8 113.4 19.6 112.9 19.6C112.4 19.6 111.9 19.7 111.5 20Z" fill="#33959F"/>
<path d="M128.7 14.7C128.1 14.2 127.8 13.6 127.8 12.8C127.8 12 128.1 11.4 128.7 10.9C129.3 10.4 130 10.1 131 10.1C132 10.1 132.7 10.3 133.3 10.8C133.9 11.3 134.2 11.9 134.2 12.7C134.2 13.5 133.9 14.2 133.3 14.7C132.7 15.2 132 15.5 131 15.5C130.1 15.4 129.4 15.2 128.7 14.7ZM128.4 16.5H133.6V29.2H128.4V16.5Z" fill="#33959F"/>
<path d="M137.7 28.9C136.6 28.7 135.8 28.4 135.1 28L136.5 24.5C137.1 24.9 137.8 25.1 138.6 25.3C139.4 25.5 140.2 25.6 140.9 25.6C141.5 25.6 141.9 25.5 142.2 25.4C142.4 25.3 142.6 25.1 142.6 24.9C142.6 24.7 142.4 24.6 142.1 24.5C141.8 24.4 141.3 24.3 140.6 24.3C139.6 24.2 138.7 24 138 23.8C137.3 23.6 136.6 23.2 136.1 22.7C135.6 22.1 135.3 21.3 135.3 20.3C135.3 19.5 135.5 18.7 136 18.1C136.5 17.4 137.2 16.9 138.2 16.5C139.2 16.1 140.4 15.9 141.7 15.9C142.7 15.9 143.6 16 144.5 16.2C145.4 16.4 146.2 16.6 146.9 17L145.5 20.5C144.4 19.9 143.2 19.6 141.8 19.6C140.7 19.6 140.1 19.8 140.1 20.2C140.1 20.4 140.3 20.5 140.6 20.6C140.9 20.7 141.4 20.8 142.1 20.8C143.1 20.9 144 21.1 144.7 21.3C145.4 21.5 146.1 21.9 146.6 22.4C147.1 23 147.4 23.8 147.4 24.8C147.4 25.6 147.2 26.3 146.7 27C146.2 27.6 145.5 28.2 144.5 28.6C143.5 29 142.3 29.2 140.9 29.2C139.9 29.3 138.9 29.2 137.7 28.9Z" fill="#33959F"/>
<path d="M169.9 16.2V28.9H164.9V27.7C164.4 28.2 163.9 28.5 163.3 28.8C162.7 29 162 29.2 161.3 29.2C159.7 29.2 158.4 28.7 157.4 27.7C156.4 26.7 155.9 25.2 155.9 23.3V16.3H161.1V22.4C161.1 23.3 161.2 23.9 161.5 24.3C161.8 24.7 162.2 24.9 162.7 24.9C163.2 24.9 163.6 24.7 164 24.3C164.3 23.9 164.5 23.2 164.5 22.4V16.4H169.9V16.2Z" fill="#33959F"/>
<path d="M185.5 17.7C186.5 18.6 187 20.1 187 22V29.2H181.5V22.9C181.5 21.4 181 20.7 179.9 20.7C179.3 20.7 178.8 20.9 178.4 21.3C178 21.7 177.8 22.4 177.8 23.2V29.2H172.3V16.6H177.5V17.9C178 17.4 178.6 17 179.3 16.8C180 16.6 180.7 16.4 181.5 16.4C183.2 16.3 184.5 16.8 185.5 17.7Z" fill="#33959F"/>
<path d="M202.9 11.7V28.9H197.9V27.9C197.1 28.8 196 29.2 194.4 29.2C193.3 29.2 192.3 28.9 191.3 28.4C190.3 27.9 189.6 27.1 189.1 26.1C188.6 25.1 188.3 23.9 188.3 22.6C188.3 21.3 188.6 20.1 189.1 19.1C189.6 18.1 190.4 17.3 191.3 16.8C192.2 16.3 193.3 16 194.4 16C195.8 16 196.9 16.4 197.6 17.1V11.7H202.9ZM197.1 24.4C197.5 24 197.7 23.3 197.7 22.6C197.7 21.9 197.5 21.2 197.1 20.8C196.7 20.4 196.2 20.2 195.6 20.2C195 20.2 194.5 20.4 194.1 20.8C193.7 21.2 193.5 21.8 193.5 22.6C193.5 23.4 193.7 24 194.1 24.4C194.5 24.8 195 25.1 195.6 25.1C196.2 25.1 196.7 24.9 197.1 24.4Z" fill="#33959F"/>
<path d="M218.6 23.8H209.8C210 24.3 210.3 24.6 210.7 24.9C211.1 25.2 211.7 25.3 212.3 25.3C212.9 25.3 213.3 25.2 213.7 25.1C214.1 25 214.5 24.7 214.9 24.4L217.6 27.2C216.4 28.6 214.5 29.2 212.1 29.2C210.6 29.2 209.2 28.9 208.1 28.4C207 27.9 206 27 205.4 26C204.8 25 204.4 23.9 204.4 22.6C204.4 21.3 204.7 20.2 205.3 19.2C205.9 18.2 206.8 17.4 207.9 16.9C209 16.3 210.2 16.1 211.6 16.1C212.9 16.1 214.1 16.4 215.1 16.9C216.2 17.4 217 18.2 217.6 19.2C218.2 20.2 218.5 21.4 218.5 22.8C218.7 22.7 218.7 23.1 218.6 23.8ZM210.5 20C210.1 20.3 209.9 20.7 209.8 21.3H213.9C213.8 20.8 213.6 20.4 213.2 20.1C212.8 19.8 212.4 19.6 211.9 19.6C211.4 19.6 210.7 19.7 210.5 20Z" fill="#33959F"/>
<path d="M229.5 16.4V21C229.1 20.9 228.7 20.9 228.3 20.9C226.5 20.9 225.6 21.8 225.6 23.6V29.2H220.4V16.7H225.4V18.1C226.2 17 227.6 16.4 229.5 16.4Z" fill="#33959F"/>
<path d="M240.9 28.3C239.8 27.7 238.9 27 238.2 26C237.6 25 237.2 23.9 237.2 22.6C237.2 21.3 237.5 20.2 238.2 19.2C238.8 18.2 239.7 17.4 240.9 16.9C242 16.3 243.3 16.1 244.8 16.1C246.3 16.1 247.7 16.4 248.8 17.1C249.9 17.8 250.7 18.7 251.1 19.9L247 21.9C246.5 20.8 245.8 20.2 244.8 20.2C244.2 20.2 243.7 20.4 243.3 20.8C242.9 21.2 242.7 21.8 242.7 22.6C242.7 23.4 242.9 24 243.3 24.5C243.7 24.9 244.2 25.1 244.8 25.1C245.8 25.1 246.5 24.5 247 23.4L251.1 25.4C250.7 26.6 249.9 27.5 248.8 28.2C247.7 28.9 246.4 29.2 244.8 29.2C243.4 29.1 242 28.8 240.9 28.3Z" fill="#33959F"/>
<path d="M255 28.4C253.9 27.8 253 27.1 252.4 26.1C251.8 25.1 251.4 24 251.4 22.7C251.4 21.4 251.7 20.3 252.4 19.3C253 18.3 253.9 17.5 255 17C256.1 16.4 257.4 16.2 258.8 16.2C260.2 16.2 261.5 16.5 262.6 17C263.7 17.6 264.6 18.3 265.2 19.3C265.8 20.3 266.1 21.4 266.1 22.7C266.1 24 265.8 25.1 265.2 26.1C264.6 27.1 263.7 27.9 262.6 28.4C261.5 28.9 260.2 29.2 258.8 29.2C257.4 29.3 256.1 29 255 28.4ZM260.2 24.5C260.6 24.1 260.8 23.4 260.8 22.7C260.8 22 260.6 21.3 260.2 20.9C259.8 20.5 259.3 20.3 258.7 20.3C258.1 20.3 257.6 20.5 257.2 20.9C256.8 21.3 256.6 21.9 256.6 22.7C256.6 23.5 256.8 24.1 257.2 24.5C257.6 24.9 258.1 25.2 258.7 25.2C259.3 25.2 259.9 25 260.2 24.5Z" fill="#33959F"/>
<path d="M278.6 17.7C279.4 18.6 279.8 20.1 279.8 22V29.2H275.3V22.9C275.3 21.4 274.9 20.7 274 20.7C273.5 20.7 273.1 20.9 272.8 21.3C272.5 21.7 272.3 22.4 272.3 23.2V29.2H267.7V16.6H272V17.9C272.4 17.4 272.9 17 273.5 16.8C274.1 16.6 274.7 16.4 275.3 16.4C276.7 16.3 277.9 16.8 278.6 17.7Z" fill="#33959F"/>
<path d="M283.9 28.9C282.8 28.7 282 28.4 281.3 28L282.7 24.5C283.3 24.9 284 25.1 284.8 25.3C285.6 25.5 286.4 25.6 287.1 25.6C287.7 25.6 288.1 25.5 288.4 25.4C288.6 25.3 288.8 25.1 288.8 24.9C288.8 24.7 288.6 24.6 288.3 24.5C288 24.4 287.5 24.3 286.8 24.3C285.8 24.2 284.9 24 284.2 23.8C283.5 23.6 282.8 23.2 282.3 22.7C281.8 22.1 281.5 21.3 281.5 20.3C281.5 19.5 281.7 18.7 282.2 18.1C282.7 17.4 283.4 16.9 284.4 16.5C285.4 16.1 286.6 15.9 287.9 15.9C288.9 15.9 289.8 16 290.7 16.2C291.6 16.4 292.4 16.6 293.1 17L291.7 20.5C290.6 19.9 289.4 19.6 288 19.6C286.9 19.6 286.3 19.8 286.3 20.2C286.3 20.4 286.5 20.5 286.8 20.6C287.1 20.7 287.6 20.8 288.3 20.8C289.3 20.9 290.2 21.1 290.9 21.3C291.6 21.5 292.3 21.9 292.8 22.4C293.3 23 293.6 23.8 293.6 24.8C293.6 25.6 293.4 26.3 292.9 27C292.4 27.6 291.7 28.2 290.7 28.6C289.7 29 288.5 29.2 287.1 29.2C286 29.3 285 29.2 283.9 28.9Z" fill="#33959F"/>
<path d="M304.6 28.5C303.8 28.9 302.7 29.2 301.4 29.2C299.6 29.2 298.2 28.8 297.3 27.9C296.3 27 295.9 25.8 295.9 24V20.7H294.2V16.9H295.9V13.3H301.1V16.9H303.7V20.7H301.1V23.9C301.1 24.3 301.2 24.6 301.4 24.8C301.6 25 301.9 25.1 302.2 25.1C302.6 25.1 303 25 303.4 24.8L304.6 28.5Z" fill="#33959F"/>
<path d="M315 16.4V21C314.6 20.9 314.2 20.9 313.8 20.9C312 20.9 311.1 21.8 311.1 23.6V29.2H305.9V16.7H310.9V18.1C311.9 17 313.2 16.4 315 16.4Z" fill="#33959F"/>
<path d="M330.5 16.2V28.9H325.5V27.7C325 28.2 324.5 28.5 323.9 28.8C323.3 29 322.6 29.2 321.9 29.2C320.3 29.2 319 28.7 318 27.7C317 26.7 316.5 25.2 316.5 23.3V16.3H321.7V22.4C321.7 23.3 321.8 23.9 322.1 24.3C322.4 24.7 322.8 24.9 323.3 24.9C323.8 24.9 324.2 24.7 324.6 24.3C325 23.9 325.1 23.2 325.1 22.4V16.4H330.5V16.2V16.2Z" fill="#33959F"/>
<path d="M335 28.3C333.9 27.7 333 27 332.3 26C331.7 25 331.3 23.9 331.3 22.6C331.3 21.3 331.6 20.2 332.3 19.2C332.9 18.2 333.8 17.4 335 16.9C336.1 16.3 337.4 16.1 338.9 16.1C340.4 16.1 341.8 16.4 342.9 17.1C344 17.8 344.8 18.7 345.2 19.9L341.1 21.9C340.6 20.8 339.9 20.2 338.9 20.2C338.3 20.2 337.8 20.4 337.4 20.8C337 21.2 336.8 21.8 336.8 22.6C336.8 23.4 337 24 337.4 24.5C337.8 24.9 338.3 25.1 338.9 25.1C339.9 25.1 340.6 24.5 341.1 23.4L345.2 25.4C344.8 26.6 344 27.5 342.9 28.2C341.8 28.9 340.5 29.2 338.9 29.2C337.5 29.1 336.1 28.8 335 28.3Z" fill="#33959F"/>
<path d="M356.4 28.5C355.6 28.9 354.5 29.2 353.2 29.2C351.4 29.2 350 28.8 349.1 27.9C348.1 27 347.7 25.8 347.7 24V20.7H346V16.9H347.7V13.3H352.9V16.9H355.5V20.7H352.9V23.9C352.9 24.3 353 24.6 353.2 24.8C353.4 25 353.7 25.1 354 25.1C354.4 25.1 354.8 25 355.2 24.8L356.4 28.5Z" fill="#33959F"/>
<path d="M358.3 14.7C357.7 14.2 357.4 13.6 357.4 12.8C357.4 12 357.7 11.4 358.3 10.9C358.9 10.4 359.6 10.1 360.6 10.1C361.6 10.1 362.3 10.3 362.9 10.8C363.5 11.3 363.8 11.9 363.8 12.7C363.8 13.5 363.5 14.2 362.9 14.7C362.3 15.2 361.6 15.5 360.6 15.5C359.7 15.4 358.9 15.2 358.3 14.7ZM358.1 16.5H363.3V29.2H358.1V16.5Z" fill="#33959F"/>
<path d="M367.9 28.4C366.8 27.8 365.9 27.1 365.3 26.1C364.7 25.1 364.3 24 364.3 22.7C364.3 21.4 364.6 20.3 365.3 19.3C365.9 18.3 366.8 17.5 367.9 17C369 16.4 370.3 16.2 371.7 16.2C373.1 16.2 374.4 16.5 375.5 17C376.6 17.6 377.5 18.3 378.1 19.3C378.7 20.3 379 21.4 379 22.7C379 24 378.7 25.1 378.1 26.1C377.5 27.1 376.6 27.9 375.5 28.4C374.4 28.9 373.1 29.2 371.7 29.2C370.2 29.3 369 29 367.9 28.4ZM373.1 24.5C373.5 24.1 373.7 23.4 373.7 22.7C373.7 22 373.5 21.3 373.1 20.9C372.7 20.5 372.2 20.3 371.6 20.3C371 20.3 370.5 20.5 370.1 20.9C369.7 21.3 369.5 21.9 369.5 22.7C369.5 23.5 369.7 24.1 370.1 24.5C370.5 24.9 371 25.2 371.6 25.2C372.2 25.2 372.7 25 373.1 24.5Z" fill="#33959F"/>
<path d="M393.2 17.7C394.2 18.6 394.6 20.1 394.6 22V29.2H389.4V22.9C389.4 21.4 388.9 20.7 387.8 20.7C387.2 20.7 386.7 20.9 386.4 21.3C386 21.7 385.9 22.4 385.9 23.2V29.2H380.7V16.6H385.7V17.9C386.2 17.4 386.8 17 387.4 16.8C388 16.6 388.8 16.4 389.5 16.4C391 16.3 392.2 16.8 393.2 17.7Z" fill="#33959F"/>
<path d="M133.2 251.1C132.4 251.5 130.9 251.9 128.9 251.9C124.3 251.9 120.9 249 120.9 243.7C120.9 238.6 124.3 235.2 129.3 235.2C131.3 235.2 132.6 235.6 133.1 235.9L132.6 237.6C131.8 237.2 130.7 236.9 129.3 236.9C125.5 236.9 123 239.3 123 243.6C123 247.6 125.3 250.1 129.2 250.1C130.5 250.1 131.8 249.8 132.6 249.4L133.2 251.1Z" fill="#33959F"/>
<path d="M146 245.7C146 250 143 251.9 140.2 251.9C137.1 251.9 134.6 249.6 134.6 245.9C134.6 242 137.1 239.7 140.4 239.7C143.7 239.7 146 242.1 146 245.7ZM136.8 245.8C136.8 248.3 138.3 250.3 140.3 250.3C142.3 250.3 143.8 248.4 143.8 245.8C143.8 243.8 142.8 241.3 140.3 241.3C137.8 241.3 136.8 243.6 136.8 245.8Z" fill="#33959F"/>
<path d="M148.7 243.1C148.7 241.9 148.7 240.9 148.6 240H150.4L150.5 241.9H150.6C151.2 240.8 152.3 239.8 154.2 239.8C155.8 239.8 157 240.8 157.5 242.1C157.9 241.5 158.3 240.9 158.8 240.6C159.5 240.1 160.3 239.8 161.4 239.8C162.9 239.8 165.2 240.8 165.2 244.8V251.6H163.1V245C163.1 242.8 162.3 241.4 160.6 241.4C159.4 241.4 158.5 242.3 158.1 243.3C158 243.6 157.9 244 157.9 244.4V251.6H155.8V244.6C155.8 242.8 155 241.4 153.4 241.4C152.1 241.4 151.1 242.5 150.8 243.5C150.7 243.8 150.6 244.2 150.6 244.5V251.5H148.5V243.1H148.7Z" fill="#33959F"/>
<path d="M168.7 243.1C168.7 241.9 168.7 240.9 168.6 240H170.4L170.5 241.9H170.6C171.2 240.8 172.3 239.8 174.2 239.8C175.8 239.8 177 240.8 177.5 242.1C177.9 241.5 178.3 240.9 178.8 240.6C179.5 240.1 180.3 239.8 181.4 239.8C182.9 239.8 185.2 240.8 185.2 244.8V251.6H183.1V245C183.1 242.8 182.3 241.4 180.6 241.4C179.4 241.4 178.5 242.3 178.1 243.3C178 243.6 177.9 244 177.9 244.4V251.6H175.8V244.6C175.8 242.8 175 241.4 173.4 241.4C172.1 241.4 171.1 242.5 170.8 243.5C170.7 243.8 170.6 244.2 170.6 244.5V251.5H168.5V243.1H168.7Z" fill="#33959F"/>
<path d="M191 236.7C191 237.4 190.5 238 189.7 238C189 238 188.4 237.4 188.4 236.7C188.4 236 189 235.4 189.7 235.4C190.5 235.4 191 236 191 236.7ZM188.7 251.6V240H190.8V251.6H188.7Z" fill="#33959F"/>
<path d="M194.3 243.1C194.3 241.9 194.3 240.9 194.2 240H196.1L196.2 241.9C196.8 240.8 198.1 239.7 200 239.7C201.6 239.7 204.1 240.7 204.1 244.6V251.5H202V244.8C202 242.9 201.3 241.4 199.3 241.4C197.9 241.4 196.8 242.4 196.5 243.6C196.4 243.9 196.4 244.2 196.4 244.6V251.6H194.3V243.1Z" fill="#33959F"/>
<path d="M217.6 240C217.6 240.8 217.5 241.8 217.5 243.2V249.9C217.5 252.6 217 254.2 215.8 255.2C214.7 256.3 213 256.6 211.6 256.6C210.2 256.6 208.7 256.3 207.7 255.6L208.2 254C209 254.5 210.2 254.9 211.6 254.9C213.8 254.9 215.3 253.8 215.3 250.8V249.6C214.7 250.7 213.4 251.5 211.6 251.5C208.7 251.5 206.7 249.1 206.7 245.8C206.7 241.9 209.3 239.6 211.9 239.6C213.9 239.6 215 240.7 215.5 241.6L215.6 239.8H217.6V240ZM215.5 244.5C215.5 244.1 215.5 243.8 215.4 243.5C215 242.3 214 241.3 212.4 241.3C210.4 241.3 208.9 243 208.9 245.7C208.9 248 210.1 249.9 212.3 249.9C213.6 249.9 214.8 249.1 215.2 247.7C215.3 247.3 215.4 246.9 215.4 246.6V244.5H215.5Z" fill="#33959F"/>
<path d="M225.9 249C226.8 249.6 228.2 250.1 229.6 250.1C231.7 250.1 233 249 233 247.3C233 245.8 232.1 244.9 230 244.1C227.4 243.2 225.7 241.8 225.7 239.5C225.7 237 227.8 235.1 230.9 235.1C232.6 235.1 233.8 235.5 234.5 235.9L233.9 237.6C233.4 237.3 232.3 236.8 230.8 236.8C228.6 236.8 227.8 238.1 227.8 239.2C227.8 240.7 228.8 241.5 231 242.3C233.7 243.4 235.1 244.7 235.1 247.1C235.1 249.6 233.3 251.8 229.4 251.8C227.8 251.8 226.1 251.3 225.3 250.8L225.9 249Z" fill="#33959F"/>
<path d="M248.6 245.7C248.6 250 245.6 251.9 242.8 251.9C239.7 251.9 237.2 249.6 237.2 245.9C237.2 242 239.7 239.7 243 239.7C246.4 239.7 248.6 242.1 248.6 245.7ZM239.4 245.8C239.4 248.3 240.9 250.3 242.9 250.3C244.9 250.3 246.4 248.4 246.4 245.8C246.4 243.8 245.4 241.3 242.9 241.3C240.5 241.3 239.4 243.6 239.4 245.8Z" fill="#33959F"/>
<path d="M261.8 245.7C261.8 250 258.8 251.9 256 251.9C252.9 251.9 250.4 249.6 250.4 245.9C250.4 242 252.9 239.7 256.2 239.7C259.5 239.7 261.8 242.1 261.8 245.7ZM252.6 245.8C252.6 248.3 254.1 250.3 256.1 250.3C258.1 250.3 259.6 248.4 259.6 245.8C259.6 243.8 258.6 241.3 256.1 241.3C253.7 241.3 252.6 243.6 252.6 245.8Z" fill="#33959F"/>
<path d="M264.5 243.1C264.5 241.9 264.5 240.9 264.4 240H266.3L266.4 241.9C267 240.8 268.3 239.7 270.2 239.7C271.8 239.7 274.3 240.7 274.3 244.6V251.5H272.2V244.8C272.2 242.9 271.5 241.4 269.5 241.4C268.1 241.4 267 242.4 266.7 243.6C266.6 243.9 266.6 244.2 266.6 244.6V251.6H264.5V243.1Z" fill="#33959F"/>
<path d="M277.3 250.3C277.3 249.4 277.9 248.8 278.7 248.8C279.5 248.8 280.1 249.4 280.1 250.3C280.1 251.2 279.5 251.8 278.7 251.8C277.9 251.8 277.3 251.2 277.3 250.3Z" fill="#33959F"/>
<path d="M282.2 250.3C282.2 249.4 282.8 248.8 283.6 248.8C284.4 248.8 285 249.4 285 250.3C285 251.2 284.4 251.8 283.6 251.8C282.8 251.8 282.2 251.2 282.2 250.3Z" fill="#33959F"/>
<path d="M287.2 250.3C287.2 249.4 287.8 248.8 288.6 248.8C289.4 248.8 290 249.4 290 250.3C290 251.2 289.4 251.8 288.6 251.8C287.8 251.8 287.2 251.2 287.2 250.3Z" fill="#33959F"/>
</svg>
